<?xml version="1.0" encoding="utf-8"?>
<!-- Generator: Adobe Illustrator 28.0.0, SVG Export Plug-In . SVG Version: 6.00 Build 0)  -->
<svg version="1.1" id="Layer_1" xmlns="http://www.w3.org/2000/svg" xmlns:xlink="http://www.w3.org/1999/xlink" x="0px" y="0px"
	 viewBox="0 0 64 64" style="enable-background:new 0 0 64 64;" xml:space="preserve">
<style type="text/css">
	.st0{fill-rule:evenodd;clip-rule:evenodd;fill:#00AA59;}
	.st1{fill-rule:evenodd;clip-rule:evenodd;fill:#EC2E39;}
	.st2{fill:#EC2E39;}
	.st3{fill:#00AA59;}
	.st4{enable-background:new    ;}
	.st5{fill:#212120;}
</style>
<g>
	<rect x="0" y="23.6" class="st0" width="34.3" height="7.7"/>
	<rect x="44.8" y="32.8" class="st1" width="19.2" height="7.7"/>
	<path class="st2" d="M44.7,23.6v7.6c0.7,0.1,1.2,0.2,1.8,0.2c3.2,0,5.8-1,7.9-3.1c2.1-2.1,3.2-4.7,3.2-7.8c0-3-1.1-5.6-3.2-7.7
		c-2.1-2.1-4.7-3.2-7.8-3.2c-3.4,0-6.1,1-8.1,3c-2,2-3,4.7-3,8.1v10.2h7.9v-9.7c0-1.1,0.3-2,0.8-2.6c0.5-0.7,1.3-1,2.2-1
		c0.8,0,1.5,0.3,2.1,0.9c0.6,0.6,0.9,1.3,0.9,2.1c0,0.9-0.3,1.6-0.8,2.1c-0.5,0.6-1.2,0.8-2.1,0.8C46,23.6,45.2,23.6,44.7,23.6
		L44.7,23.6z"/>
	<path class="st3" d="M34.3,40.4v-7.6c-0.7-0.1-1.2-0.2-1.8-0.2c-3.2,0-5.8,1-7.9,3.1c-2.1,2.1-3.2,4.7-3.2,7.8c0,3,1.1,5.6,3.2,7.7
		c2.1,2.1,4.7,3.2,7.8,3.2c3.4,0,6.1-1,8.1-3c2-2,3-4.7,3-8.1V33.1h-7.9v9.7c0,1.1-0.3,2-0.8,2.6c-0.5,0.7-1.3,1-2.2,1
		c-0.8,0-1.5-0.3-2.1-0.9c-0.6-0.6-0.9-1.3-0.9-2.1c0-0.9,0.3-1.6,0.8-2.1c0.5-0.6,1.2-0.8,2.1-0.8C33.1,40.4,33.9,40.4,34.3,40.4
		L34.3,40.4z"/>
	<g class="st4">
		<path class="st5" d="M3.3,37.9l-0.1-0.7h0C2.9,37.6,2.4,38,1.6,38c-1,0-1.5-0.7-1.5-1.5c0-1.3,1.1-1.9,3-1.9v-0.1
			C3.1,34,3,33.3,2,33.3c-0.5,0-1,0.1-1.3,0.4L0.5,33c0.4-0.3,1-0.5,1.6-0.5c1.5,0,1.9,1.1,1.9,2.1v1.9c0,0.4,0,0.9,0.1,1.2H3.3z
			 M3.1,35.2c-1,0-2.1,0.2-2.1,1.2c0,0.6,0.4,0.9,0.9,0.9c0.7,0,1.1-0.4,1.2-0.9c0-0.1,0.1-0.2,0.1-0.3V35.2z"/>
		<path class="st5" d="M5.4,36.9c0.3,0.2,0.7,0.4,1.2,0.4c0.7,0,1-0.3,1-0.8c0-0.4-0.3-0.7-0.9-1c-0.9-0.3-1.3-0.8-1.3-1.5
			c0-0.8,0.7-1.5,1.7-1.5c0.5,0,1,0.1,1.2,0.3L8,33.6c-0.2-0.1-0.6-0.3-1-0.3c-0.5,0-0.8,0.3-0.8,0.7c0,0.4,0.3,0.6,1,0.9
			c0.9,0.3,1.3,0.8,1.3,1.6c0,0.9-0.7,1.6-1.9,1.6c-0.6,0-1.1-0.1-1.4-0.4L5.4,36.9z"/>
		<path class="st5" d="M12.4,37.9l-0.1-0.7h0C12,37.6,11.5,38,10.8,38c-1,0-1.5-0.7-1.5-1.5c0-1.3,1.1-1.9,3-1.9v-0.1
			c0-0.4-0.1-1.2-1.1-1.2c-0.5,0-1,0.1-1.3,0.4L9.6,33c0.4-0.3,1-0.5,1.6-0.5c1.5,0,1.9,1.1,1.9,2.1v1.9c0,0.4,0,0.9,0.1,1.2H12.4z
			 M12.3,35.2c-1,0-2.1,0.2-2.1,1.2c0,0.6,0.4,0.9,0.9,0.9c0.7,0,1.1-0.4,1.2-0.9c0-0.1,0.1-0.2,0.1-0.3V35.2z"/>
	</g>
	<g class="st4">
		<path class="st5" d="M0.7,40.8c0-0.1,0-0.2,0-0.2v-1.2h0.2V40h0c0.1-0.1,0.2-0.2,0.3-0.2c0.2,0,0.4,0.2,0.4,0.5
			c0,0.3-0.2,0.5-0.4,0.5c-0.1,0-0.2-0.1-0.3-0.2h0l0,0.2H0.7z M0.9,40.4C0.9,40.5,0.9,40.5,0.9,40.4c0,0.2,0.1,0.3,0.3,0.3
			c0.2,0,0.3-0.1,0.3-0.4c0-0.2-0.1-0.4-0.3-0.4c-0.1,0-0.2,0.1-0.3,0.2c0,0,0,0,0,0.1V40.4z"/>
		<path class="st5" d="M1.9,40.4c0,0.2,0.1,0.3,0.3,0.3c0.1,0,0.2,0,0.3,0l0,0.1c-0.1,0-0.2,0.1-0.3,0.1c-0.3,0-0.5-0.2-0.5-0.5
			c0-0.3,0.2-0.5,0.4-0.5c0.3,0,0.4,0.3,0.4,0.4c0,0,0,0.1,0,0.1H1.9z M2.4,40.3c0-0.1,0-0.3-0.2-0.3c-0.2,0-0.2,0.2-0.3,0.3H2.4z"
			/>
		<path class="st5" d="M3.7,40.8l0-0.1h0c-0.1,0.1-0.2,0.1-0.3,0.1c-0.2,0-0.3-0.1-0.3-0.3c0-0.2,0.2-0.4,0.6-0.4v0
			c0-0.1,0-0.2-0.2-0.2c-0.1,0-0.2,0-0.2,0.1l0-0.1c0.1-0.1,0.2-0.1,0.3-0.1c0.3,0,0.4,0.2,0.4,0.4v0.4c0,0.1,0,0.2,0,0.2H3.7z
			 M3.7,40.3c-0.2,0-0.4,0-0.4,0.2c0,0.1,0.1,0.2,0.2,0.2c0.1,0,0.2-0.1,0.2-0.2c0,0,0,0,0-0.1V40.3z"/>
		<path class="st5" d="M4.2,39.9l0.1,0.5c0,0.1,0.1,0.2,0.1,0.3h0c0-0.1,0.1-0.2,0.1-0.3l0.2-0.5h0.1l0.1,0.5c0,0.1,0.1,0.2,0.1,0.3
			h0c0-0.1,0-0.2,0.1-0.3l0.1-0.5h0.2l-0.3,1H4.9l-0.1-0.5c0-0.1-0.1-0.2-0.1-0.3h0c0,0.1-0.1,0.2-0.1,0.3l-0.1,0.5H4.3l-0.3-1H4.2z
			"/>
		<path class="st5" d="M6,40.8l0-0.1h0c-0.1,0.1-0.2,0.1-0.3,0.1c-0.2,0-0.3-0.1-0.3-0.3c0-0.2,0.2-0.4,0.6-0.4v0
			C6,40.1,6,40,5.8,40c-0.1,0-0.2,0-0.2,0.1l0-0.1c0.1-0.1,0.2-0.1,0.3-0.1c0.3,0,0.4,0.2,0.4,0.4v0.4c0,0.1,0,0.2,0,0.2H6z M6,40.3
			c-0.2,0-0.4,0-0.4,0.2c0,0.1,0.1,0.2,0.2,0.2c0.1,0,0.2-0.1,0.2-0.2c0,0,0,0,0-0.1V40.3z"/>
		<path class="st5" d="M6.4,40.2c0-0.1,0-0.2,0-0.3h0.1l0,0.2h0c0-0.1,0.1-0.2,0.3-0.2c0,0,0,0,0,0V40c0,0,0,0-0.1,0
			c-0.1,0-0.2,0.1-0.2,0.2c0,0,0,0.1,0,0.1v0.5H6.4V40.2z"/>
		<path class="st5" d="M7.1,40.4c0,0.2,0.1,0.3,0.3,0.3c0.1,0,0.2,0,0.3,0l0,0.1c-0.1,0-0.2,0.1-0.3,0.1c-0.3,0-0.5-0.2-0.5-0.5
			c0-0.3,0.2-0.5,0.4-0.5c0.3,0,0.4,0.3,0.4,0.4c0,0,0,0.1,0,0.1H7.1z M7.6,40.3c0-0.1,0-0.3-0.2-0.3c-0.2,0-0.2,0.2-0.3,0.3H7.6z"
			/>
		<path class="st5" d="M7.9,40.7c0-0.1,0-0.1,0.1-0.1c0.1,0,0.1,0.1,0.1,0.1c0,0.1,0,0.1-0.1,0.1C8,40.8,7.9,40.8,7.9,40.7z"/>
		<path class="st5" d="M8.8,40.8c0-0.1,0-0.2,0-0.2v-1.2H9V40h0c0.1-0.1,0.2-0.2,0.3-0.2c0.2,0,0.4,0.2,0.4,0.5
			c0,0.3-0.2,0.5-0.4,0.5c-0.1,0-0.2-0.1-0.3-0.2h0l0,0.2H8.8z M9,40.4C9,40.5,9,40.5,9,40.4c0,0.2,0.1,0.3,0.3,0.3
			c0.2,0,0.3-0.1,0.3-0.4c0-0.2-0.1-0.4-0.3-0.4C9.1,40,9,40.1,9,40.2c0,0,0,0,0,0.1V40.4z"/>
		<path class="st5" d="M10,40.4c0,0.2,0.1,0.3,0.3,0.3c0.1,0,0.2,0,0.3,0l0,0.1c-0.1,0-0.2,0.1-0.3,0.1c-0.3,0-0.5-0.2-0.5-0.5
			c0-0.3,0.2-0.5,0.4-0.5c0.3,0,0.4,0.3,0.4,0.4c0,0,0,0.1,0,0.1H10z M10.5,40.3c0-0.1,0-0.3-0.2-0.3c-0.2,0-0.2,0.2-0.3,0.3H10.5z"
			/>
		<path class="st5" d="M12,40.6c0,0.1,0,0.2,0,0.3h-0.1l0-0.2h0c0,0.1-0.1,0.2-0.3,0.2c-0.1,0-0.3-0.1-0.3-0.4v-0.6h0.2v0.5
			c0,0.2,0.1,0.3,0.2,0.3c0.1,0,0.2-0.1,0.2-0.2c0,0,0-0.1,0-0.1v-0.6H12V40.6z"/>
		<path class="st5" d="M12.3,40.1c0-0.1,0-0.2,0-0.3h0.1l0,0.2h0c0-0.1,0.2-0.2,0.3-0.2c0.1,0,0.3,0.1,0.3,0.4v0.6h-0.2v-0.6
			c0-0.2-0.1-0.3-0.2-0.3c-0.1,0-0.2,0.1-0.2,0.2c0,0,0,0.1,0,0.1v0.6h-0.2V40.1z"/>
		<path class="st5" d="M13.6,39.6c0,0.1,0,0.1-0.1,0.1c-0.1,0-0.1,0-0.1-0.1c0-0.1,0-0.1,0.1-0.1C13.5,39.5,13.6,39.5,13.6,39.6z
			 M13.4,40.8v-1h0.2v1H13.4z"/>
		<path class="st5" d="M14,39.6v0.3h0.2V40H14v0.5c0,0.1,0,0.2,0.1,0.2c0,0,0.1,0,0.1,0l0,0.1c0,0-0.1,0-0.1,0c-0.1,0-0.1,0-0.2-0.1
			c0-0.1-0.1-0.1-0.1-0.2V40h-0.1v-0.1h0.1v-0.2L14,39.6z"/>
		<path class="st5" d="M14.5,40.4c0,0.2,0.1,0.3,0.3,0.3c0.1,0,0.2,0,0.3,0l0,0.1c-0.1,0-0.2,0.1-0.3,0.1c-0.3,0-0.5-0.2-0.5-0.5
			c0-0.3,0.2-0.5,0.4-0.5c0.3,0,0.4,0.3,0.4,0.4c0,0,0,0.1,0,0.1H14.5z M15,40.3c0-0.1,0-0.3-0.2-0.3c-0.2,0-0.2,0.2-0.3,0.3H15z"/>
		<path class="st5" d="M16.2,39.4v1.2c0,0.1,0,0.2,0,0.2h-0.2l0-0.2h0c-0.1,0.1-0.2,0.2-0.3,0.2c-0.2,0-0.4-0.2-0.4-0.5
			c0-0.3,0.2-0.5,0.4-0.5c0.1,0,0.2,0.1,0.3,0.1h0v-0.6H16.2z M16,40.3C16,40.2,16,40.2,16,40.3c0-0.2-0.1-0.3-0.3-0.3
			c-0.2,0-0.3,0.2-0.3,0.4c0,0.2,0.1,0.4,0.3,0.4c0.1,0,0.2-0.1,0.2-0.2c0,0,0,0,0-0.1V40.3z"/>
		<path class="st5" d="M16.4,40.7c0-0.1,0-0.1,0.1-0.1c0.1,0,0.1,0.1,0.1,0.1c0,0.1,0,0.1-0.1,0.1C16.5,40.8,16.4,40.8,16.4,40.7z"
			/>
	</g>
</g>
</svg>
