<?xml version="1.0" encoding="utf-8"?>
<!-- Generator: Adobe Illustrator 28.0.0, SVG Export Plug-In . SVG Version: 6.00 Build 0)  -->
<svg version="1.1" id="Layer_1" xmlns="http://www.w3.org/2000/svg" xmlns:xlink="http://www.w3.org/1999/xlink" x="0px" y="0px"
	 viewBox="0 0 512 512" style="enable-background:new 0 0 512 512;" xml:space="preserve">
<style type="text/css">
	.st0{fill-rule:evenodd;clip-rule:evenodd;fill:#00AA59;}
	.st1{fill-rule:evenodd;clip-rule:evenodd;fill:#EC2E39;}
	.st2{fill:#EC2E39;}
	.st3{fill:#00AA59;}
	.st4{enable-background:new    ;}
	.st5{fill:#212120;}
</style>
<g>
	<rect x="0" y="188.7" class="st0" width="274.7" height="61.4"/>
	<rect x="358.4" y="262.3" class="st1" width="153.6" height="61.4"/>
	<path class="st2" d="M357.9,188.8v60.6c5.2,0.9,10,1.3,14.2,1.3c25.4,0,46.5-8.3,63.5-24.8c17-16.5,25.4-37.2,25.4-62.1
		c0-24.2-8.6-44.8-25.7-61.6c-17.1-16.9-37.9-25.3-62.4-25.3c-27.3,0-48.8,7.9-64.6,23.7c-15.7,15.8-23.6,37.4-23.6,64.8v81.9h63.5
		v-77.4c0-8.8,2.1-15.8,6.5-21.1c4.3-5.2,10.1-7.8,17.4-7.8c6.6,0,12.3,2.4,17.1,7.2c4.8,4.8,7.2,10.5,7.2,17
		c0,6.9-2.2,12.6-6.5,17.1c-4.4,4.5-10,6.7-16.7,6.7C367.7,188.9,361.4,188.8,357.9,188.8L357.9,188.8z"/>
	<path class="st3" d="M274.5,323.2v-60.6c-5.2-0.9-10-1.3-14.2-1.3c-25.4,0-46.5,8.3-63.5,24.8c-17,16.5-25.4,37.2-25.4,62.1
		c0,24.2,8.6,44.8,25.7,61.6c17.1,16.9,37.9,25.3,62.4,25.3c27.3,0,48.8-7.9,64.6-23.7c15.7-15.8,23.6-37.4,23.6-64.8v-81.9h-63.5
		v77.4c0,8.8-2.1,15.8-6.5,21.1c-4.3,5.2-10.1,7.8-17.4,7.8c-6.6,0-12.3-2.4-17.1-7.2c-4.8-4.8-7.2-10.5-7.2-17
		c0-6.9,2.2-12.6,6.5-17.1c4.4-4.5,10-6.7,16.7-6.7C264.7,323.1,271.1,323.2,274.5,323.2L274.5,323.2z"/>
	<g class="st4">
		<path class="st5" d="M26.2,302.8l-0.6-5.2h-0.2c-2.2,3.2-6.6,6.2-12.3,6.2c-8.1,0-12.3-5.9-12.3-11.9c0-10,8.6-15.5,24.2-15.4
			v-0.9c0-3.4-0.9-9.6-9.1-9.6c-3.7,0-7.6,1.2-10.5,3.1l-1.7-5c3.3-2.2,8.1-3.7,13.2-3.7c12.3,0,15.3,8.6,15.3,16.9v15.5
			c0,3.6,0.2,7.1,0.7,9.9H26.2z M25.2,281.7c-8-0.2-17,1.3-17,9.3c0,4.9,3.2,7.2,6.9,7.2c5.2,0,8.6-3.4,9.7-6.9
			c0.2-0.8,0.4-1.6,0.4-2.4V281.7z"/>
		<path class="st5" d="M43,295.1c2.2,1.5,6,3,9.6,3c5.3,0,7.8-2.7,7.8-6.2c0-3.6-2.1-5.6-7.5-7.6c-7.2-2.7-10.6-6.8-10.6-11.7
			c0-6.7,5.2-12.1,13.9-12.1c4.1,0,7.6,1.2,9.9,2.6l-1.8,5.5c-1.6-1-4.5-2.4-8.2-2.4c-4.3,0-6.7,2.6-6.7,5.6c0,3.4,2.4,5,7.6,7
			c7,2.7,10.5,6.3,10.5,12.5c0,7.3-5.5,12.4-15,12.4c-4.4,0-8.5-1.1-11.3-2.8L43,295.1z"/>
		<path class="st5" d="M99.1,302.8l-0.6-5.2h-0.2c-2.2,3.2-6.6,6.2-12.3,6.2c-8.1,0-12.3-5.9-12.3-11.9c0-10,8.6-15.5,24.2-15.4
			v-0.9c0-3.4-0.9-9.6-9.1-9.6c-3.7,0-7.6,1.2-10.5,3.1l-1.7-5c3.3-2.2,8.1-3.7,13.2-3.7c12.3,0,15.3,8.6,15.3,16.9v15.5
			c0,3.6,0.2,7.1,0.7,9.9H99.1z M98.1,281.7c-8-0.2-17,1.3-17,9.3c0,4.9,3.2,7.2,6.9,7.2c5.2,0,8.6-3.4,9.7-6.9
			c0.2-0.8,0.4-1.6,0.4-2.4V281.7z"/>
	</g>
	<g class="st4">
		<path class="st5" d="M5.8,326.6c0-0.5,0.1-1.3,0.1-2v-9.2h1.3v4.8h0c0.5-0.9,1.3-1.4,2.5-1.4c1.8,0,3.1,1.6,3.1,3.9
			c0,2.7-1.7,4.1-3.3,4.1c-1.1,0-1.9-0.4-2.5-1.4h0l-0.1,1.3H5.8z M7.2,323.5c0,0.2,0,0.3,0.1,0.5c0.3,1,1,1.6,2,1.6
			c1.4,0,2.3-1.2,2.3-2.9c0-1.5-0.8-2.8-2.2-2.8c-0.9,0-1.8,0.6-2.1,1.7c0,0.2-0.1,0.3-0.1,0.6V323.5z"/>
		<path class="st5" d="M15.3,323c0,1.9,1.2,2.7,2.5,2.7c1,0,1.6-0.2,2.1-0.4l0.2,1c-0.5,0.2-1.3,0.5-2.5,0.5c-2.3,0-3.7-1.5-3.7-3.9
			c0-2.3,1.3-4.1,3.5-4.1c2.4,0,3.1,2.2,3.1,3.6c0,0.3,0,0.5,0,0.6H15.3z M19.3,322c0-0.9-0.4-2.3-1.9-2.3c-1.4,0-2,1.3-2.1,2.3
			H19.3z"/>
		<path class="st5" d="M29.6,326.6l-0.1-1h0c-0.4,0.6-1.2,1.1-2.3,1.1c-1.5,0-2.3-1.1-2.3-2.2c0-1.8,1.6-2.9,4.5-2.8v-0.2
			c0-0.6-0.2-1.8-1.7-1.8c-0.7,0-1.4,0.2-1.9,0.6l-0.3-0.9c0.6-0.4,1.5-0.7,2.4-0.7c2.3,0,2.8,1.6,2.8,3.1v2.9c0,0.7,0,1.3,0.1,1.8
			H29.6z M29.4,322.7c-1.5,0-3.1,0.2-3.1,1.7c0,0.9,0.6,1.3,1.3,1.3c1,0,1.6-0.6,1.8-1.3c0-0.1,0.1-0.3,0.1-0.4V322.7z"/>
		<path class="st5" d="M33.3,318.9l1,3.9c0.2,0.9,0.4,1.6,0.6,2.4h0c0.2-0.8,0.4-1.6,0.7-2.4l1.2-3.9h1.1l1.2,3.8
			c0.3,0.9,0.5,1.7,0.7,2.5h0c0.1-0.8,0.3-1.6,0.6-2.5l1.1-3.8h1.3l-2.4,7.6h-1.2l-1.1-3.6c-0.3-0.9-0.5-1.6-0.7-2.5h0
			c-0.2,0.9-0.4,1.7-0.7,2.5l-1.2,3.6h-1.2l-2.2-7.6H33.3z"/>
		<path class="st5" d="M48.2,326.6l-0.1-1h0c-0.4,0.6-1.2,1.1-2.3,1.1c-1.5,0-2.3-1.1-2.3-2.2c0-1.8,1.6-2.9,4.5-2.8v-0.2
			c0-0.6-0.2-1.8-1.7-1.8c-0.7,0-1.4,0.2-1.9,0.6l-0.3-0.9c0.6-0.4,1.5-0.7,2.4-0.7c2.3,0,2.8,1.6,2.8,3.1v2.9c0,0.7,0,1.3,0.1,1.8
			H48.2z M48,322.7c-1.5,0-3.1,0.2-3.1,1.7c0,0.9,0.6,1.3,1.3,1.3c1,0,1.6-0.6,1.8-1.3c0-0.1,0.1-0.3,0.1-0.4V322.7z"/>
		<path class="st5" d="M51.5,321.3c0-0.9,0-1.7-0.1-2.4h1.2l0,1.5h0.1c0.3-1,1.2-1.7,2.1-1.7c0.2,0,0.3,0,0.4,0v1.3
			c-0.1,0-0.3,0-0.5,0c-1,0-1.6,0.7-1.8,1.8c0,0.2-0.1,0.4-0.1,0.6v4.1h-1.3V321.3z"/>
		<path class="st5" d="M57.1,323c0,1.9,1.2,2.7,2.5,2.7c1,0,1.6-0.2,2.1-0.4l0.2,1c-0.5,0.2-1.3,0.5-2.5,0.5c-2.3,0-3.7-1.5-3.7-3.9
			c0-2.3,1.3-4.1,3.5-4.1c2.4,0,3.1,2.2,3.1,3.6c0,0.3,0,0.5,0,0.6H57.1z M61,322c0-0.9-0.4-2.3-1.9-2.3c-1.4,0-2,1.3-2.1,2.3H61z"
			/>
		<path class="st5" d="M63.5,325.7c0-0.6,0.4-1,0.9-1c0.5,0,0.9,0.4,0.9,1c0,0.6-0.4,1-0.9,1C63.9,326.7,63.5,326.3,63.5,325.7z"/>
		<path class="st5" d="M70.2,326.6c0-0.5,0.1-1.3,0.1-2v-9.2h1.3v4.8h0c0.5-0.9,1.3-1.4,2.5-1.4c1.8,0,3.1,1.6,3.1,3.9
			c0,2.7-1.7,4.1-3.3,4.1c-1.1,0-1.9-0.4-2.5-1.4h0l-0.1,1.3H70.2z M71.6,323.5c0,0.2,0,0.3,0.1,0.5c0.3,1,1,1.6,2,1.6
			c1.4,0,2.3-1.2,2.3-2.9c0-1.5-0.8-2.8-2.2-2.8c-0.9,0-1.8,0.6-2.1,1.7c0,0.2-0.1,0.3-0.1,0.6V323.5z"/>
		<path class="st5" d="M79.8,323c0,1.9,1.2,2.7,2.5,2.7c1,0,1.6-0.2,2.1-0.4l0.2,1c-0.5,0.2-1.3,0.5-2.5,0.5c-2.3,0-3.7-1.5-3.7-3.9
			c0-2.3,1.3-4.1,3.5-4.1c2.4,0,3.1,2.2,3.1,3.6c0,0.3,0,0.5,0,0.6H79.8z M83.7,322c0-0.9-0.4-2.3-1.9-2.3c-1.4,0-2,1.3-2.1,2.3
			H83.7z"/>
		<path class="st5" d="M96.2,324.5c0,0.8,0,1.5,0.1,2.1H95l-0.1-1.2h0c-0.4,0.6-1.1,1.4-2.5,1.4c-1.2,0-2.6-0.7-2.6-3.3v-4.5h1.4
			v4.2c0,1.5,0.4,2.4,1.7,2.4c0.9,0,1.5-0.6,1.8-1.3c0.1-0.2,0.1-0.5,0.1-0.7v-4.7h1.4V324.5z"/>
		<path class="st5" d="M98.4,321c0-0.8,0-1.4-0.1-2.1h1.2l0.1,1.3h0c0.4-0.7,1.2-1.4,2.5-1.4c1,0,2.6,0.6,2.6,3.3v4.6h-1.4v-4.4
			c0-1.2-0.4-2.3-1.7-2.3c-0.9,0-1.6,0.6-1.8,1.4c-0.1,0.2-0.1,0.4-0.1,0.6v4.6h-1.4V321z"/>
		<path class="st5" d="M108.4,316.8c0,0.5-0.3,0.9-0.9,0.9c-0.5,0-0.8-0.4-0.8-0.9c0-0.5,0.4-0.9,0.8-0.9
			C108.1,315.9,108.4,316.3,108.4,316.8z M106.9,326.6v-7.6h1.4v7.6H106.9z"/>
		<path class="st5" d="M112.2,316.7v2.2h1.9v1.1h-1.9v4.1c0,0.9,0.3,1.5,1,1.5c0.4,0,0.6,0,0.8-0.1l0.1,1c-0.3,0.1-0.7,0.2-1.2,0.2
			c-0.6,0-1.1-0.2-1.5-0.6c-0.4-0.4-0.5-1.1-0.5-2V320h-1.2v-1.1h1.2v-1.8L112.2,316.7z"/>
		<path class="st5" d="M116.3,323c0,1.9,1.2,2.7,2.5,2.7c1,0,1.6-0.2,2.1-0.4l0.2,1c-0.5,0.2-1.3,0.5-2.5,0.5
			c-2.3,0-3.7-1.5-3.7-3.9c0-2.3,1.3-4.1,3.5-4.1c2.4,0,3.1,2.2,3.1,3.6c0,0.3,0,0.5,0,0.6H116.3z M120.2,322c0-0.9-0.4-2.3-1.9-2.3
			c-1.4,0-2,1.3-2.1,2.3H120.2z"/>
		<path class="st5" d="M129.6,315.4v9.2c0,0.7,0,1.5,0.1,2h-1.2l-0.1-1.3h0c-0.4,0.9-1.3,1.5-2.5,1.5c-1.8,0-3.2-1.6-3.2-3.9
			c0-2.5,1.5-4.1,3.3-4.1c1.1,0,1.9,0.6,2.2,1.2h0v-4.6H129.6z M128.3,322c0-0.2,0-0.4-0.1-0.6c-0.2-0.9-0.9-1.6-2-1.6
			c-1.4,0-2.2,1.3-2.2,3c0,1.5,0.7,2.8,2.2,2.8c0.9,0,1.7-0.6,2-1.7c0-0.2,0.1-0.4,0.1-0.6V322z"/>
		<path class="st5" d="M131.4,325.7c0-0.6,0.4-1,0.9-1c0.5,0,0.9,0.4,0.9,1c0,0.6-0.4,1-0.9,1C131.8,326.7,131.4,326.3,131.4,325.7z
			"/>
	</g>
</g>
</svg>
