<?xml version="1.0" encoding="utf-8"?>
<!-- Generator: Adobe Illustrator 28.0.0, SVG Export Plug-In . SVG Version: 6.00 Build 0)  -->
<svg version="1.1" id="Layer_1" xmlns="http://www.w3.org/2000/svg" xmlns:xlink="http://www.w3.org/1999/xlink" x="0px" y="0px"
	 viewBox="0 0 423.8 512" style="enable-background:new 0 0 423.8 512;" xml:space="preserve">
<style type="text/css">
	.st0{fill:#E85984;}
	.st1{fill:#E51050;}
	.st2{fill:#FFFFFF;}
	.st3{fill:#770829;}
</style>
<g id="_x23_e85984ff">
	<path class="st0" d="M0,103.4c23-15,46.1-29.9,69.1-44.9c0,106.3,0.1,212.7-0.1,319c-9,6-18.2,11.8-27.2,17.8
		c-11.6,7.2-23.1,14.7-34.5,22.4c-2.2,1.6-4.7,2.9-7.2,3.9C0,315.5,0.3,209.4,0,103.4z"/>
</g>
<g id="_x23_e51050ff">
	<path class="st1" d="M69.1,58.4c101.7,0,203.3,0,305,0c10.6,0.1,20.8,8.5,21.7,19.3c0.4,19-0.3,38.1,0.3,57.2
		c0.2,72.9,0,145.8,0.1,218.7c-0.2,8,0.4,16-0.3,23.9c-34,0.3-68.1,0-102.2,0.1c-70.9,0-141.7,0-212.6,0c-4,0.1-8.1,0.1-12.1-0.4
		C69.2,271.1,69.1,164.8,69.1,58.4 M208.8,124.8c-6.8,19.5-12.1,39.5-18.4,59.2c-11.7,38.4-23.5,76.8-35.2,115.2
		c-1.1,3.1-2,6.2-2.5,9.4c11.1,0.2,22.2,0.3,33.3,0c4.3-14.8,8.6-29.5,12.7-44.3c0.4-1.3,0.9-2.6,1.4-3.8
		c21.1,0.1,42.1-0.3,63.2,0.2c5.1,16,9.9,32.1,15.2,48.1c11.3,0.1,22.7,0.1,34.1-0.1c-6.7-22.6-14.4-44.9-21.4-67.4
		c-12.6-38.7-24.8-77.6-37.5-116.3C238.7,124.4,223.7,124.5,208.8,124.8z"/>
	<path class="st1" d="M230.8,148.6c2.2,5.2,3,10.8,4.8,16.1c6.4,22.9,13.2,45.6,19.4,68.6c-15.8,0.2-31.6,0.2-47.4,0
		C214.8,205,223.3,176.9,230.8,148.6z"/>
</g>
<g id="_x23_ffffffff">
	<path class="st2" d="M208.8,124.8c15-0.2,30-0.3,44.9,0c12.7,38.7,24.9,77.6,37.5,116.3c7,22.5,14.7,44.8,21.4,67.4
		c-11.3,0.2-22.7,0.1-34.1,0.1c-5.4-15.9-10.2-32-15.2-48.1c-21.1-0.5-42.1-0.1-63.2-0.2c-0.5,1.3-1,2.5-1.4,3.8
		c-4.1,14.8-8.4,29.5-12.7,44.3c-11.1,0.3-22.2,0.2-33.3,0c0.5-3.2,1.4-6.3,2.5-9.4c11.7-38.4,23.5-76.8,35.2-115.2
		C196.6,164.3,202,144.3,208.8,124.8 M230.8,148.6c-7.4,28.3-16,56.3-23.2,84.7c15.8,0.2,31.6,0.2,47.4,0
		c-6.2-22.9-12.9-45.7-19.4-68.6C233.8,159.4,233,153.8,230.8,148.6z"/>
</g>
<g id="_x23_770829ff">
	<path class="st3" d="M396.1,135c9.1-1.1,18.3-0.5,27.4-0.4c0.5,24,0.1,48,0.2,72c0,76.6,0,153.2,0,229.8
		c-0.1,5.7,0.2,11.4-0.2,17.1c-118.1,0.2-236.3,0-354.4,0.1c-7,0-14.7-0.7-20.2-5.6c-4.1-3.8-7.2-9.1-7.1-14.9c0-12.6,0-25.2,0-37.9
		c9-6,18.2-11.8,27.2-17.8c4,0.4,8.1,0.4,12.1,0.4c70.9,0,141.7,0,212.6,0c34.1-0.1,68.1,0.2,102.2-0.1c0.6-8,0.1-16,0.3-23.9
		C396.2,280.8,396.4,207.9,396.1,135z"/>
</g>
</svg>
