<?xml version="1.0" encoding="utf-8"?>
<!-- Generator: Adobe Illustrator 28.0.0, SVG Export Plug-In . SVG Version: 6.00 Build 0)  -->
<svg version="1.1" id="Layer_1" xmlns:xodm="http://www.corel.com/coreldraw/odm/2003"
	 xmlns="http://www.w3.org/2000/svg" xmlns:xlink="http://www.w3.org/1999/xlink" x="0px" y="0px" viewBox="0 0 500 500"
	 style="enable-background:new 0 0 500 500;" xml:space="preserve">
<style type="text/css">
	.st0{fill-rule:evenodd;clip-rule:evenodd;fill:url(#SVGID_1_);}
	.st1{clip-path:url(#SVGID_00000073001373076064698900000005998551646113567921_);}
	.st2{fill-rule:evenodd;clip-rule:evenodd;fill:#053100;}
	.st3{fill:none;}
	.st4{fill-rule:evenodd;clip-rule:evenodd;fill:url(#SVGID_00000034052683571307477120000010549796979685712281_);}
	.st5{fill-rule:evenodd;clip-rule:evenodd;fill:url(#SVGID_00000018928517875891031690000007415259467902985123_);}
</style>
<g id="Capa_x0020_1">
	<g id="_2012515368400">
		
			<linearGradient id="SVGID_1_" gradientUnits="userSpaceOnUse" x1="25170.3809" y1="25092.1523" x2="25170.3809" y2="30309.2012" gradientTransform="matrix(7.199994e-02 0 0 7.199994e-02 -1562.4159 -1697.3323)">
			<stop  offset="0" style="stop-color:#14EA32"/>
			<stop  offset="1" style="stop-color:#08590C"/>
		</linearGradient>
		<path class="st0" d="M166.5,0H500v333.2C500,425,425,500,333.2,500H166.5C74.7,500-0.3,425-0.3,333.2V166.8
			C-0.3,75,74.7,0,166.5,0z"/>
		<g>
			<g>
				<defs>
					<path id="SVGID_00000033363208411029052860000010943685901247605135_" d="M166.5,0H500v333.2C500,425,425,500,333.2,500H166.5
						C74.7,500-0.3,425-0.3,333.2V166.8C-0.3,75,74.7,0,166.5,0z"/>
				</defs>
				<clipPath id="SVGID_00000099620088762138649350000016701163500470912680_">
					<use xlink:href="#SVGID_00000033363208411029052860000010943685901247605135_"  style="overflow:visible;"/>
				</clipPath>
				<g style="clip-path:url(#SVGID_00000099620088762138649350000016701163500470912680_);">
					<g>
						<polygon id="_1" class="st2" points="109.8,141.8 89.5,152 -150.3,392.2 109.8,680.1 384.4,403.5 375,354.3 						"/>
					</g>
				</g>
			</g>
		</g>
		<path class="st3" d="M166.5,0H500v333.2C500,425,425,500,333.2,500H166.5C74.7,500-0.3,425-0.3,333.2V166.8
			C-0.3,75,74.7,0,166.5,0z"/>
		<g>
			
				<linearGradient id="SVGID_00000025419864077248777740000003007383011128528060_" gradientUnits="userSpaceOnUse" x1="25177.9336" y1="26938.2852" x2="24531.1934" y2="27585.0254" gradientTransform="matrix(7.199994e-02 0 0 7.199994e-02 -1562.4159 -1697.3323)">
				<stop  offset="0" style="stop-color:#FFFFFF"/>
				<stop  offset="1" style="stop-color:#91C796"/>
			</linearGradient>
			<path style="fill-rule:evenodd;clip-rule:evenodd;fill:url(#SVGID_00000025419864077248777740000003007383011128528060_);" d="
				M178.2,262.9L309,394.1c2.7,2.7,7,3.5,10.2,1.6c6.2-3.1,13.7-3.1,19.9,0c3.5,2,7.4,1.2,10.2-1.6l25.4-25.4
				c2.7-2.7,3.5-7,1.6-10.2c-3.1-6.2-3.1-13.7,0-19.9c2-3.5,1.2-7.4-1.6-10.2L244.6,196.9l0,0l-87.5-91.8
				c-4.7-5.1-12.5-5.1-17.6-0.4l-49.2,46.9c-5.1,4.7-5.1,12.5-0.4,17.6L178.2,262.9L178.2,262.9L178.2,262.9z"/>
			
				<linearGradient id="SVGID_00000172430068449016672840000013017363634696323235_" gradientUnits="userSpaceOnUse" x1="26939.7461" y1="29059.9297" x2="26686.9414" y2="29319.7441" gradientTransform="matrix(7.199994e-02 0 0 7.199994e-02 -1562.4159 -1697.3323)">
				<stop  offset="0" style="stop-color:#FFFFFF"/>
				<stop  offset="1" style="stop-color:#91C796"/>
			</linearGradient>
			<path style="fill-rule:evenodd;clip-rule:evenodd;fill:url(#SVGID_00000172430068449016672840000013017363634696323235_);" d="
				M382.5,380.9L384,402c0,0.8,0,1.2-0.8,1.6c-0.4,0.4-1.2,0.8-1.6,0.8l-21.1-1.6c-0.8,0-1.6-0.4-2-1.6c-0.4-0.8,0-1.6,0.4-2.3
				l19.5-19.5c0.8-0.8,1.6-0.8,2.3-0.4C382.1,379.3,382.5,380.1,382.5,380.9L382.5,380.9z"/>
		</g>
	</g>
</g>
</svg>
