<?xml version="1.0" encoding="utf-8"?>
<!-- Generator: Adobe Illustrator 28.0.0, SVG Export Plug-In . SVG Version: 6.00 Build 0)  -->
<svg version="1.1" id="layer" xmlns="http://www.w3.org/2000/svg" xmlns:xlink="http://www.w3.org/1999/xlink" x="0px" y="0px"
	 viewBox="0 0 512 512" style="enable-background:new 0 0 512 512;" xml:space="preserve">
<style type="text/css">
	.st0{fill:#005F9E;}
</style>
<path class="st0" d="M460.8,130.2L316,46.6c0,0-23.1-13.6-59.8-13.6C218,33,196,46.9,196,46.9L61.8,124l204.3,117.4v237.3L400.7,402
	c0,0,24.2-13.2,42.2-44.7c16.1-27.9,18-54.6,18-54.6L460.8,130.2L460.8,130.2z M242.2,169.1c0,0,30.1-5.5,55.4,9.2
	c25.3,14.7,40.3,23.1,40.3,23.1s0,20.2,0,50.6c0,24.2-20.5,49.5-20.5,49.5V212L242.2,169.1z M361.1,364.9l-43.6,24.9v-23.5
	l34.1-19.4c32.3-23.5,37.8-58,37.8-69.7v-106l-92.8-53.5c0,0-14.3-9.2-39.6-9.2s-39.2,8.4-39.2,8.4L185,135.7L164.5,124l45.1-25.7
	c0,0,17.6-9.9,47.3-9.9c27.1,0,48.4,10.6,48.4,10.6l104.9,60.5v115.5C410.2,293,402.2,336.3,361.1,364.9z M51.5,201l143.4,82.2v24.6
	l-81.8-46.9l-51.3,29L194.6,366v23.5L52.3,308.4c0.4,9.5,9.2,39.2,25.7,62c16.9,23.1,35.9,33,35.9,33L245.2,479V253.4l-194-111.5
	L51.5,201z"/>
</svg>
