<?xml version="1.0" encoding="utf-8"?>
<!-- Generator: Adobe Illustrator 28.0.0, SVG Export Plug-In . SVG Version: 6.00 Build 0)  -->
<svg version="1.1" id="layer" xmlns="http://www.w3.org/2000/svg" xmlns:xlink="http://www.w3.org/1999/xlink" x="0px" y="0px"
	 viewBox="0 0 512 512" style="enable-background:new 0 0 512 512;" xml:space="preserve">
<style type="text/css">
	.st0{fill:#005F9E;}
</style>
<path class="st0" d="M491.1,111.6l-166.2-96c0,0-26.5-15.6-68.6-15.6c-43.9,0-69.1,16-69.1,16L33.1,104.5l234.5,134.8v272.4
	l154.5-88.1c0,0,27.8-15.2,48.4-51.3c18.5-32,20.7-62.7,20.7-62.7L491.1,111.6L491.1,111.6z M240.2,156.2c0,0,34.6-6.3,63.6,10.6
	c29,16.9,46.3,26.5,46.3,26.5s0,23.2,0,58.1c0,27.8-23.5,56.8-23.5,56.8V205.5L240.2,156.2z M376.6,381l-50.1,28.6v-27l39.1-22.3
	c37.1-27,43.4-66.6,43.4-80V158.7L302.6,97.2c0,0-16.4-10.6-45.5-10.6s-45,9.6-45,9.6l-37.7,21.6L151,104.5L202.7,75
	c0,0,20.2-11.4,54.3-11.4c31.1,0,55.6,12.2,55.6,12.2L433,145.2v132.6C433,298.5,423.8,348.2,376.6,381z M21.2,192.9l164.6,94.4
	v28.2l-93.9-53.8l-58.9,33.3l152.5,87.4v27L22.1,316.2c0.5,10.9,10.6,45,29.5,71.2c19.4,26.5,41.2,37.9,41.2,37.9L243.6,512V253
	L20.9,125L21.2,192.9z"/>
</svg>
