<?xml version="1.0" encoding="utf-8"?>
<!-- Generator: Adobe Illustrator 28.0.0, SVG Export Plug-In . SVG Version: 6.00 Build 0)  -->
<svg version="1.1" id="Layer_1" xmlns="http://www.w3.org/2000/svg" xmlns:xlink="http://www.w3.org/1999/xlink" x="0px" y="0px"
	 viewBox="0 0 512 512" style="enable-background:new 0 0 512 512;" xml:space="preserve">
<style type="text/css">
	.st0{fill:#4945FF;}
	.st1{fill-rule:evenodd;clip-rule:evenodd;fill:#FFFFFF;}
	.st2{fill:#FFFFFF;}
	.st3{fill:#9593FF;}
</style>
<g>
	<path class="st0" d="M0,177.5C0,93.8,0,52,26,26S93.8,0,177.5,0h157C418.2,0,460,0,486,26c26,26,26,67.8,26,151.5v157
		c0,83.7,0,125.5-26,151.5c-26,26-67.8,26-151.5,26h-157C93.8,512,52,512,26,486C0,460,0,418.2,0,334.5V177.5z"/>
	<path class="st1" d="M353.3,155.3H180.9v87.9h87.9v87.9h87.9V158.7C356.7,156.8,355.2,155.3,353.3,155.3L353.3,155.3z"/>
	<path class="st2" d="M265.4,243.2h3.4v3.4h-3.4V243.2z"/>
	<path class="st3" d="M180.9,243.2h84.5c1.9,0,3.4,1.5,3.4,3.4v84.5h-84.5c-1.9,0-3.4-1.5-3.4-3.4V243.2z M268.8,331.1h87.9l-85,85
		c-0.7,0.7-1.7,0.7-2.4,0c-0.3-0.3-0.5-0.8-0.5-1.2V331.1z M180.9,243.2H97.1c-0.9,0-1.7-0.8-1.7-1.7c0-0.5,0.2-0.9,0.5-1.2l85-85
		L180.9,243.2z"/>
</g>
</svg>
