<?xml version="1.0" encoding="utf-8"?>
<!-- Generator: Adobe Illustrator 28.0.0, SVG Export Plug-In . SVG Version: 6.00 Build 0)  -->
<svg version="1.1" id="Layer_1" xmlns="http://www.w3.org/2000/svg" xmlns:xlink="http://www.w3.org/1999/xlink" x="0px" y="0px"
	 viewBox="0 0 64 64" style="enable-background:new 0 0 64 64;" xml:space="preserve">
<style type="text/css">
	.st0{fill:#05359A;}
	.st1{fill:#02015B;}
	.st2{fill-rule:evenodd;clip-rule:evenodd;fill:#003298;}
	.st3{fill:#003298;}
	.st4{fill:#023790;}
</style>
<g>
	<g>
		<g>
			<g>
				<g>
					<path class="st0" d="M36.6,24.6l0.2-0.3c1,0.8,2.1,1.1,3.3,0.9c1.2-0.2,2.2-0.7,3-1.6c0.6-0.7,0.9-1.4,0.9-2.2
						c0-0.8-0.3-1.4-0.8-1.9c-0.6-0.5-1.2-0.7-1.9-0.5c-0.7,0.1-1.7,0.6-3.1,1.5c-1.1,0.7-2,1.1-2.5,1.3c-0.7,0.3-1.3,0.3-1.9,0.2
						c-0.7-0.1-1.3-0.4-1.8-0.8c-0.6-0.5-1-1.2-1.2-2.1c0.2,0.3,0.4,0.6,0.6,0.8c0.6,0.5,1.2,0.8,1.9,0.9c0.7,0.1,1.3,0.1,1.9-0.1
						s1.5-0.7,2.6-1.4c1.5-0.9,2.7-1.5,3.6-1.6c0.9-0.2,1.7,0.1,2.5,0.8c0.7,0.6,1.2,1.5,1.3,2.6c0.1,1.1-0.3,2.2-1.3,3.3
						c-0.4,0.5-1,1-1.9,1.7c-0.8,0.6-1.3,1-1.6,1.4h-0.2c-0.1-0.1-0.3-0.3-0.5-0.4c-0.2-0.2-0.6-0.5-1.1-0.9
						c-0.5-0.4-0.9-0.7-1.1-0.9C37.1,25.1,36.8,24.8,36.6,24.6L36.6,24.6z"/>
				</g>
				<g>
					<path class="st0" d="M40,27.8L40,27.8c-0.2-0.2-0.3-0.3-0.5-0.5c-0.2-0.2-0.6-0.5-1.1-0.9c-0.6-0.4-0.9-0.7-1.2-0.9
						c-0.3-0.3-0.6-0.5-0.8-0.8l-0.1-0.2l0.5-0.6l0.2,0.2c0.9,0.7,2,1,3.1,0.8c1.1-0.2,2.1-0.7,2.8-1.5c0.6-0.6,0.8-1.3,0.8-2
						c0-0.7-0.3-1.3-0.7-1.7c-0.5-0.5-1.1-0.6-1.7-0.5c-0.6,0.1-1.7,0.6-3,1.4c-1.1,0.7-2,1.1-2.6,1.4c-0.7,0.3-1.4,0.4-2.1,0.3
						c-0.7-0.1-1.4-0.4-1.9-0.9c-0.6-0.5-1-1.3-1.3-2.2l-0.4-1.6l0.9,1.4c0.2,0.3,0.4,0.6,0.6,0.7c0.5,0.5,1.1,0.8,1.7,0.9
						c0.6,0.1,1.2,0.1,1.8-0.1c0.6-0.2,1.4-0.6,2.5-1.3c1.5-0.9,2.7-1.5,3.7-1.6c1-0.2,1.9,0.1,2.7,0.8c0.8,0.7,1.2,1.6,1.4,2.7
						c0.1,1.2-0.3,2.3-1.4,3.5c-0.4,0.5-1.1,1-1.9,1.7c-0.8,0.6-1.3,1-1.6,1.3l-0.1,0.1H40z M37.4,25c0.1,0.1,0.1,0.1,0.2,0.2
						c0.2,0.2,0.6,0.5,1.1,0.9c0.5,0.4,0.9,0.7,1.2,0.9c0.2,0.1,0.3,0.3,0.4,0.3c0.3-0.3,0.8-0.8,1.5-1.3c0.9-0.6,1.5-1.2,1.9-1.6
						c0.9-1.1,1.3-2.1,1.2-3.1c-0.1-1-0.5-1.8-1.2-2.4c-0.7-0.6-1.5-0.8-2.3-0.7c-0.9,0.2-2.1,0.7-3.5,1.6c-1.2,0.7-2,1.2-2.6,1.4
						s-1.3,0.3-2,0.2c-0.6-0.1-1.1-0.3-1.7-0.7c0.2,0.3,0.4,0.5,0.6,0.7c0.5,0.4,1,0.7,1.6,0.7c0.6,0.1,1.2,0,1.8-0.2
						c0.6-0.2,1.4-0.7,2.5-1.3c1.4-0.9,2.5-1.4,3.2-1.5c0.8-0.2,1.5,0,2.1,0.6c0.6,0.5,0.9,1.2,0.9,2c0,0.8-0.3,1.6-1,2.4
						c-0.8,0.9-1.9,1.5-3.1,1.7C39.2,25.6,38.2,25.5,37.4,25z"/>
				</g>
			</g>
			<g>
				<g>
					<path class="st0" d="M33.7,19.8l-0.2-0.3c1-0.7,1.7-1.6,1.9-2.9c0.2-1.2,0-2.3-0.6-3.3c-0.5-0.8-1.1-1.3-1.8-1.5
						c-0.7-0.2-1.4-0.2-2,0.2c-0.7,0.4-1,0.9-1.1,1.6c-0.1,0.7,0.1,1.8,0.4,3.4c0.3,1.3,0.5,2.2,0.5,2.8c0,0.7-0.1,1.3-0.4,1.9
						c-0.3,0.6-0.7,1.1-1.3,1.4c-0.7,0.4-1.4,0.6-2.3,0.5c0.4-0.1,0.7-0.2,0.9-0.4c0.7-0.4,1.1-0.9,1.4-1.5c0.3-0.6,0.5-1.2,0.5-1.9
						c0-0.6-0.2-1.6-0.5-2.9c-0.4-1.7-0.6-3-0.4-3.9c0.1-0.9,0.7-1.6,1.5-2.1c0.8-0.5,1.8-0.6,2.8-0.4c1.1,0.2,2,1,2.8,2.3
						c0.3,0.5,0.6,1.3,1,2.3c0.3,0.9,0.6,1.6,0.8,2l-0.1,0.2c-0.2,0.1-0.3,0.2-0.6,0.3c-0.3,0.2-0.7,0.4-1.2,0.8
						c-0.5,0.4-0.9,0.6-1.2,0.8C34.3,19.5,34,19.7,33.7,19.8L33.7,19.8z"/>
				</g>
				<g>
					<path class="st0" d="M27.1,24c-0.1,0-0.2,0-0.4,0l-1.6-0.1l1.6-0.4c0.4-0.1,0.6-0.2,0.9-0.3c0.6-0.4,1.1-0.8,1.3-1.4
						c0.3-0.6,0.4-1.2,0.4-1.7c0-0.6-0.2-1.6-0.5-2.8c-0.4-1.7-0.6-3.1-0.4-4c0.2-1,0.7-1.8,1.6-2.3c0.9-0.5,1.9-0.7,3-0.5
						c1.1,0.3,2.1,1,2.9,2.4c0.3,0.5,0.7,1.3,1,2.4c0.3,0.9,0.6,1.5,0.8,1.9l0.1,0.1l-0.1,0.4l-0.1,0.1c-0.1,0.1-0.3,0.2-0.5,0.3
						c-0.3,0.2-0.7,0.4-1.2,0.8c-0.6,0.4-1,0.7-1.2,0.8c-0.4,0.2-0.7,0.4-1,0.5l-0.2,0.1l-0.4-0.7l0.2-0.1c1-0.7,1.6-1.6,1.8-2.7
						c0.2-1.1,0-2.2-0.6-3.1c-0.4-0.7-1-1.2-1.7-1.4c-0.7-0.2-1.3-0.2-1.8,0.2c-0.6,0.4-0.9,0.8-1,1.4c-0.1,0.6,0.1,1.8,0.4,3.3
						c0.3,1.3,0.5,2.3,0.5,2.9c0,0.7-0.1,1.4-0.4,2c-0.3,0.7-0.8,1.2-1.4,1.5C28.6,23.8,27.9,24,27.1,24z M32.1,10.9
						c-0.6,0-1.2,0.2-1.8,0.5c-0.8,0.5-1.3,1.1-1.4,2c-0.1,0.9,0,2.2,0.4,3.8c0.3,1.3,0.5,2.3,0.5,2.9c0,0.7-0.2,1.3-0.5,2
						c-0.3,0.5-0.7,1-1.2,1.4c0.3-0.1,0.6-0.2,0.8-0.3c0.6-0.3,1-0.8,1.2-1.3c0.3-0.5,0.4-1.1,0.4-1.8c0-0.6-0.2-1.5-0.5-2.8
						c-0.4-1.6-0.5-2.8-0.4-3.5c0.1-0.8,0.5-1.4,1.2-1.8c0.7-0.4,1.4-0.5,2.2-0.2c0.8,0.3,1.4,0.8,1.9,1.6c0.6,1.1,0.8,2.2,0.6,3.5
						c-0.2,1-0.6,1.9-1.4,2.5c0.1,0,0.2-0.1,0.2-0.1c0.3-0.2,0.6-0.4,1.2-0.8c0.5-0.4,0.9-0.7,1.2-0.8c0.2-0.1,0.3-0.2,0.5-0.3
						c-0.2-0.4-0.5-1-0.8-1.9c-0.4-1-0.7-1.8-1-2.3C34.9,11.9,34,11.2,33,11C32.7,10.9,32.4,10.9,32.1,10.9z"/>
				</g>
			</g>
			<g>
				<g>
					<path class="st0" d="M28.2,21.1l-0.3,0.1c-0.3-1.2-1.1-2.1-2.1-2.7c-1.1-0.6-2.2-0.7-3.3-0.5c-0.9,0.2-1.6,0.6-2,1.2
						c-0.4,0.6-0.6,1.3-0.4,2c0.2,0.7,0.6,1.3,1.2,1.5c0.6,0.3,1.7,0.5,3.4,0.6c1.3,0.1,2.3,0.3,2.9,0.4c0.7,0.2,1.2,0.5,1.7,0.9
						c0.5,0.5,0.8,1,1,1.7c0.2,0.7,0.1,1.5-0.3,2.4c0-0.4,0-0.7-0.1-1c-0.2-0.7-0.5-1.3-1-1.8c-0.5-0.5-1-0.8-1.6-1
						c-0.6-0.2-1.6-0.3-2.9-0.4c-1.7-0.1-3-0.4-3.9-0.8c-0.8-0.4-1.3-1.1-1.6-2.1c-0.2-1-0.1-1.9,0.5-2.8c0.6-1,1.6-1.6,3-1.9
						c0.6-0.1,1.4-0.2,2.5-0.2c1,0,1.7-0.1,2.1-0.2l0.1,0.1c0,0.2,0.1,0.4,0.1,0.6c0.1,0.3,0.2,0.8,0.4,1.4c0.2,0.6,0.3,1.1,0.4,1.4
						C28.1,20.5,28.2,20.8,28.2,21.1L28.2,21.1z"/>
				</g>
				<g>
					<path class="st0" d="M29.5,30.5l0.1-1.6c0-0.4,0-0.7-0.1-0.9c-0.2-0.7-0.5-1.3-0.9-1.7c-0.5-0.5-1-0.8-1.5-0.9
						c-0.6-0.2-1.5-0.3-2.8-0.4c-1.8-0.1-3.1-0.4-4-0.9c-0.9-0.5-1.5-1.2-1.7-2.3c-0.2-1-0.1-2,0.5-3c0.6-1,1.7-1.7,3.2-2
						c0.6-0.1,1.5-0.2,2.6-0.2c0.9,0,1.6-0.1,2.1-0.2l0.1,0l0.3,0.2l0,0.1c0,0.2,0.1,0.4,0.1,0.6c0.1,0.3,0.2,0.8,0.4,1.4
						c0.2,0.7,0.3,1.1,0.4,1.4c0.1,0.4,0.2,0.8,0.2,1.1l0,0.2l-0.8,0.2l-0.1-0.2c-0.3-1.1-1-2-2-2.5c-1-0.5-2.1-0.7-3.2-0.4
						c-0.8,0.2-1.5,0.6-1.9,1.1c-0.4,0.6-0.5,1.2-0.4,1.8c0.2,0.7,0.5,1.1,1.1,1.4c0.6,0.3,1.7,0.5,3.3,0.6c1.3,0.1,2.3,0.3,2.9,0.4
						c0.7,0.2,1.3,0.5,1.8,1c0.5,0.5,0.9,1.1,1,1.8c0.2,0.8,0.1,1.6-0.3,2.5L29.5,30.5z M26.9,16.9c-0.5,0.1-1.1,0.1-2,0.1
						c-1.1,0-1.9,0.1-2.5,0.2c-1.4,0.3-2.3,0.9-2.8,1.8c-0.5,0.9-0.7,1.8-0.5,2.7c0.2,0.9,0.7,1.5,1.4,1.9c0.8,0.4,2.1,0.7,3.8,0.8
						c1.4,0.1,2.3,0.3,2.9,0.4c0.6,0.2,1.2,0.5,1.7,1.1c0.4,0.4,0.7,1,0.9,1.6c0-0.3,0-0.6-0.1-0.9C29.7,26,29.4,25.5,29,25
						c-0.4-0.4-1-0.7-1.6-0.9c-0.6-0.1-1.5-0.3-2.8-0.4c-1.7-0.2-2.8-0.4-3.5-0.7c-0.7-0.3-1.2-0.9-1.3-1.7c-0.2-0.8,0-1.5,0.5-2.2
						c0.5-0.7,1.2-1.1,2.2-1.3c1.2-0.3,2.4-0.1,3.5,0.5c0.9,0.5,1.6,1.2,2,2.1c0-0.1,0-0.2-0.1-0.3c-0.1-0.3-0.2-0.7-0.4-1.4
						c-0.2-0.6-0.3-1.1-0.4-1.4C27,17.2,26.9,17,26.9,16.9z"/>
				</g>
			</g>
			<g>
				<g>
					<path class="st0" d="M27.8,26.7l0,0.3c-1.2-0.1-2.3,0.4-3.2,1.2c-0.9,0.8-1.4,1.8-1.5,3c-0.1,0.9,0.1,1.7,0.6,2.3
						c0.5,0.6,1.1,1,1.8,1c0.8,0.1,1.4-0.2,1.8-0.7c0.5-0.5,1-1.5,1.7-3c0.5-1.2,1-2.1,1.3-2.6c0.4-0.6,0.9-1,1.4-1.3
						c0.6-0.3,1.2-0.5,1.9-0.4c0.8,0.1,1.5,0.4,2.2,1c-0.4-0.2-0.7-0.2-1-0.3c-0.8-0.1-1.4,0.1-2,0.4c-0.6,0.3-1.1,0.7-1.5,1.2
						c-0.4,0.5-0.8,1.4-1.3,2.6c-0.7,1.6-1.3,2.8-2,3.4c-0.7,0.7-1.5,0.9-2.5,0.8c-1-0.1-1.8-0.5-2.6-1.3c-0.7-0.8-1-2-0.9-3.4
						c0.1-0.6,0.2-1.4,0.6-2.5c0.3-0.9,0.4-1.6,0.5-2.1l0.1-0.1c0.2,0,0.4,0.1,0.6,0.1c0.3,0,0.8,0,1.4,0c0.7,0,1.1,0,1.5,0.1
						C27.2,26.6,27.5,26.7,27.8,26.7L27.8,26.7z"/>
				</g>
				<g>
					<path class="st0" d="M25.8,36.1c-0.1,0-0.3,0-0.4,0c-1-0.1-1.9-0.6-2.7-1.4c-0.8-0.9-1.1-2.1-1-3.6c0.1-0.6,0.3-1.5,0.6-2.5
						c0.3-0.9,0.4-1.6,0.5-2l0-0.1l0.3-0.2l0.1,0c0.2,0,0.4,0.1,0.6,0.1c0.3,0,0.8,0,1.4,0c0.7,0,1.2,0,1.5,0.1
						c0.4,0,0.8,0.1,1.1,0.2l0.2,0.1L28,27.3l-0.2,0c-1.2-0.1-2.2,0.3-3,1.1c-0.8,0.8-1.3,1.8-1.4,2.9c-0.1,0.8,0.1,1.6,0.5,2.1
						c0.4,0.6,0.9,0.9,1.6,0.9c0.7,0.1,1.2-0.1,1.6-0.6c0.4-0.5,1-1.5,1.6-3c0.5-1.2,1-2.1,1.3-2.6c0.4-0.6,0.9-1.1,1.5-1.4
						c0.6-0.4,1.3-0.5,2-0.4c0.8,0.1,1.6,0.4,2.3,1l1.3,1.1l-1.5-0.6c-0.3-0.1-0.6-0.2-0.9-0.3c-0.7-0.1-1.3,0.1-1.9,0.3
						c-0.6,0.3-1,0.7-1.4,1.2c-0.4,0.5-0.8,1.4-1.3,2.6c-0.7,1.7-1.3,2.8-2,3.5C27.5,35.7,26.7,36.1,25.8,36.1z M23.3,26.7
						c-0.1,0.5-0.2,1.1-0.5,2c-0.3,1-0.5,1.8-0.6,2.4c-0.1,1.4,0.2,2.5,0.8,3.3c0.7,0.8,1.5,1.2,2.4,1.3c0.9,0.1,1.7-0.2,2.3-0.8
						c0.6-0.7,1.3-1.8,1.9-3.3c0.5-1.3,1-2.1,1.3-2.7c0.4-0.5,0.9-1,1.6-1.3c0.5-0.3,1.1-0.4,1.7-0.4c0,0,0,0,0,0
						c-0.3-0.1-0.6-0.2-0.9-0.2c-0.6-0.1-1.2,0.1-1.8,0.4c-0.5,0.3-1,0.7-1.3,1.2c-0.3,0.5-0.7,1.4-1.3,2.6
						c-0.7,1.5-1.2,2.6-1.7,3.1c-0.5,0.6-1.2,0.8-2,0.7c-0.8-0.1-1.4-0.5-1.9-1.1c-0.5-0.7-0.7-1.5-0.6-2.5c0.1-1.2,0.6-2.3,1.5-3.2
						c0.7-0.7,1.6-1.1,2.6-1.2c-0.1,0-0.2,0-0.3,0c-0.3,0-0.8-0.1-1.4-0.1c-0.7,0-1.1,0-1.5,0C23.6,26.7,23.5,26.7,23.3,26.7z"/>
				</g>
			</g>
			<g>
				<g>
					<path class="st0" d="M33,28.9l0.3,0.1c-0.4,1.2-0.4,2.3,0.2,3.4c0.5,1.1,1.3,1.9,2.4,2.3c0.8,0.4,1.6,0.4,2.4,0.2
						c0.7-0.3,1.2-0.7,1.5-1.4c0.3-0.7,0.3-1.3-0.1-1.9c-0.3-0.6-1.1-1.4-2.4-2.5c-1-0.9-1.7-1.6-2.1-2c-0.4-0.5-0.7-1.1-0.8-1.8
						c-0.1-0.7-0.1-1.3,0.2-1.9c0.3-0.7,0.8-1.3,1.6-1.8c-0.3,0.3-0.4,0.6-0.6,0.8c-0.3,0.7-0.4,1.4-0.3,2c0.1,0.7,0.3,1.3,0.7,1.8
						c0.4,0.5,1.1,1.2,2.1,2.1c1.3,1.1,2.2,2.1,2.6,3c0.4,0.8,0.4,1.7,0,2.6c-0.4,0.9-1.1,1.6-2.1,2c-1,0.4-2.2,0.4-3.6-0.2
						c-0.6-0.2-1.3-0.7-2.2-1.3c-0.8-0.6-1.4-0.9-1.8-1.1l-0.1-0.2c0.1-0.2,0.2-0.3,0.3-0.6c0.1-0.3,0.3-0.7,0.5-1.4
						c0.2-0.6,0.4-1.1,0.5-1.4C32.7,29.4,32.9,29.1,33,28.9L33,28.9z"/>
				</g>
				<g>
					<path class="st0" d="M37.4,36.4c-0.7,0-1.5-0.2-2.3-0.5c-0.6-0.3-1.3-0.7-2.2-1.3c-0.8-0.5-1.4-0.9-1.8-1.1l-0.1,0L31,33.1
						L31,33c0.1-0.1,0.2-0.3,0.3-0.6c0.1-0.3,0.3-0.7,0.5-1.3c0.2-0.7,0.4-1.1,0.5-1.4c0.2-0.4,0.3-0.7,0.5-1l0.1-0.2l0.7,0.3
						l-0.1,0.2c-0.4,1.1-0.4,2.2,0.2,3.2c0.5,1,1.3,1.8,2.3,2.2c0.8,0.3,1.5,0.4,2.2,0.2c0.7-0.2,1.1-0.6,1.4-1.2
						c0.3-0.6,0.3-1.2-0.1-1.7c-0.3-0.6-1.1-1.4-2.3-2.5c-1-0.9-1.7-1.6-2.1-2c-0.5-0.6-0.8-1.2-0.9-1.9c-0.1-0.7-0.1-1.4,0.2-2.1
						c0.3-0.8,0.9-1.4,1.7-1.9l1.4-0.9l-1.1,1.2c-0.2,0.3-0.4,0.5-0.5,0.8c-0.3,0.7-0.4,1.3-0.3,1.9c0.1,0.6,0.3,1.2,0.7,1.7
						c0.4,0.5,1.1,1.2,2.1,2c1.4,1.2,2.3,2.1,2.7,3s0.5,1.8,0.1,2.8c-0.4,1-1.1,1.7-2.2,2.1C38.5,36.3,38,36.4,37.4,36.4z
						 M31.6,33.1c0.4,0.2,1,0.6,1.7,1.1c0.9,0.6,1.6,1,2.1,1.3c1.3,0.6,2.4,0.6,3.4,0.2c0.9-0.4,1.6-1,1.9-1.9
						c0.4-0.9,0.4-1.6,0-2.4c-0.4-0.8-1.3-1.8-2.6-2.9c-1-0.9-1.7-1.6-2.1-2.1c-0.4-0.5-0.7-1.2-0.8-1.9c-0.1-0.6,0-1.2,0.2-1.8
						c-0.2,0.2-0.3,0.5-0.5,0.7c-0.3,0.6-0.3,1.2-0.2,1.8c0.1,0.6,0.4,1.2,0.8,1.7c0.4,0.5,1.1,1.1,2,2c1.3,1.1,2.1,2,2.4,2.6
						c0.4,0.7,0.4,1.4,0.1,2.2c-0.3,0.7-0.9,1.2-1.7,1.5c-0.8,0.3-1.6,0.2-2.5-0.2c-1.1-0.5-2-1.3-2.5-2.5c-0.5-0.9-0.6-1.9-0.4-2.8
						c0,0.1-0.1,0.2-0.1,0.2c-0.1,0.3-0.3,0.7-0.5,1.4c-0.2,0.6-0.4,1.1-0.5,1.4C31.7,32.8,31.6,33,31.6,33.1z"/>
				</g>
			</g>
		</g>
		<g>
			<path class="st0" d="M53.8,6.1l0-0.4l-0.4-0.1c-2.1-0.3-4.4-1.2-7-2.2c-2.9-1.1-6.2-2.3-9.8-3c-1.4-0.3-3-0.4-4.6-0.5
				c-1.7,0.1-3.3,0.2-4.6,0.5c-3.6,0.7-6.9,1.9-9.8,3c-2.7,1-5,1.8-7,2.2l-0.4,0.1l0,0.4c-0.7,12.3,1,22.1,5.1,29.9
				c3.6,6.7,9,11.9,16.6,15.8l0.1,0.1l0.1-0.1c7.6-3.9,13-9.1,16.6-15.8C52.8,28.2,54.5,18.5,53.8,6.1z M32,50.7
				c-15.4-8.1-22-22.1-20.9-44.2c2.1-0.4,4.3-1.2,6.8-2.1c2.9-1.1,6.1-2.3,9.6-3C28.8,1.2,30.4,1,31.9,1c1.6,0.1,3.1,0.2,4.4,0.5
				c3.5,0.7,6.8,1.9,9.6,3c2.5,1,4.8,1.8,6.8,2.1C54,28.6,47.3,42.6,32,50.7z"/>
		</g>
		<g>
			<path class="st1" d="M50.7,8.5l0-0.2l-0.2,0c-1.8-0.3-3.8-1-6.1-1.9c-2.5-1-5.3-2-8.4-2.7c-1.2-0.2-2.6-0.4-4-0.4
				c-1.4,0-2.8,0.2-4,0.4c-3.1,0.6-5.9,1.7-8.4,2.7c-2.3,0.9-4.3,1.6-6.1,1.9l-0.2,0l0,0.2c-0.6,10.9,0.9,19.5,4.4,26.3
				c3.1,5.9,7.7,10.4,14.2,13.9l0,0l0,0c6.5-3.4,11.2-8,14.2-13.9C49.8,27.9,51.3,19.3,50.7,8.5z M32,48
				C18.5,40.9,12.7,28.3,13.8,8.7c1.8-0.3,3.7-1.1,6-1.9c2.5-0.9,5.3-2,8.4-2.6c1.1-0.2,2.5-0.4,3.9-0.4c1.4,0,2.7,0.2,3.9,0.4
				c3.1,0.6,5.9,1.7,8.4,2.6c2.3,0.9,4.2,1.6,6,1.9C51.2,28.3,45.4,40.9,32,48z"/>
			<path class="st1" d="M32,48.7L32,48.7c-6.6-3.5-11.2-8-14.3-13.9c-3.6-6.8-5-15.4-4.4-26.3l0-0.3l0.3,0c1.8-0.3,3.8-1,6.1-1.9
				c2.5-1,5.3-2,8.4-2.7c1.2-0.2,2.6-0.4,4-0.4c1.4,0,2.8,0.2,4,0.4c3.1,0.6,5.9,1.7,8.4,2.7c2.3,0.9,4.3,1.6,6.1,1.9l0.3,0l0,0.3
				c0.6,10.9-0.9,19.5-4.4,26.3C43.2,40.7,38.5,45.2,32,48.7L32,48.7z M13.3,8.3l0,0.2c-0.6,10.8,0.9,19.4,4.4,26.2
				c3.1,5.9,7.7,10.4,14.2,13.8c6.5-3.4,11.1-8,14.2-13.8c3.6-6.8,5-15.4,4.4-26.2l0-0.2l-0.2,0c-1.8-0.3-3.8-1-6.1-1.9
				c-2.5-1-5.3-2-8.4-2.7c-1.2-0.2-2.6-0.4-3.9-0.4c-1.4,0-2.8,0.2-3.9,0.4c-3.1,0.6-5.9,1.7-8.4,2.7c-2.3,0.9-4.3,1.6-6.1,1.9
				L13.3,8.3z M32,48.1L32,48.1C18.5,40.9,12.7,28.4,13.7,8.7V8.6l0.1,0c1.8-0.3,3.7-1,6-1.9c2.5-0.9,5.3-2,8.4-2.6
				c1.1-0.2,2.5-0.4,3.9-0.4c1.4,0,2.7,0.2,3.9,0.4c3.1,0.6,5.9,1.7,8.4,2.6c2.3,0.9,4.2,1.6,6,1.9l0.1,0v0.1
				C51.3,28.4,45.5,40.9,32,48.1L32,48.1z M13.8,8.7C12.8,28.3,18.6,40.8,32,48c13.4-7.2,19.2-19.7,18.2-39.2
				c-1.8-0.3-3.7-1.1-6-1.9c-2.5-0.9-5.3-2-8.3-2.6C34.7,4,33.3,3.8,32,3.8c-1.4,0-2.7,0.2-3.8,0.4c-3.1,0.6-5.9,1.7-8.3,2.6
				C17.5,7.7,15.6,8.4,13.8,8.7z"/>
		</g>
	</g>
	<g>
		<g>
			<g>
				<path class="st2" d="M62.8,47.5c-2.3,0.1-4,2-4.6,3.7l-0.1-0.1l-1.1-2.6l0,0v0v0v0c-0.1-0.2-0.3-0.4-0.7-0.5c0,0-0.1,0-0.1,0
					c-0.1,0-0.1-0.1-0.2-0.1c0,0-0.1-0.1-0.1-0.1c0,0,0,0,0,0c0-0.1,0.1-0.2,0.3-0.3c0.2-0.1,0.5-0.3,0.8-0.4
					c0.7-0.3,1.6-0.5,2.5-0.5C60.8,46.4,62,46.7,62.8,47.5C62.8,47.5,62.8,47.5,62.8,47.5L62.8,47.5z M59.1,53.8L59.1,53.8
					C59.1,53.8,59.1,53.8,59.1,53.8c0,0.1,0,0.2,0,0.2c0,0.4-0.1,0.9-1,1c-0.3,0-0.7,0-1.2-0.2l0,0c-0.2-0.1-0.4-0.2-0.6-0.3
					c-0.7-0.3-1.8-0.9-2.7-0.8c-0.1,0-0.3,0-0.4,0.1l-1.3-3l-0.1-0.2l0,0l0,0c-0.1-0.2-0.2-0.3-0.3-0.4c-0.1-0.1-0.3-0.2-0.4-0.2
					c-0.1,0-0.2-0.1-0.3-0.1c-0.2-0.1-0.5-0.1-0.7-0.1c-1.6,0.1-3.3,1.4-4.2,2.1c-0.1,0.1-0.3,0.1-0.4,0.2c0,0-0.1,0-0.1,0
					c-0.2,0-0.3-0.1-0.4-0.3l0,0c-0.1-0.1-0.1-0.3-0.1-0.5c0-0.2,0.1-0.5,0.3-0.7c1.4-1.3,3.1-2.3,5-2.4c1.2,0,2.5,0.3,4,1.2
					c0.5,0.3,1,0.4,1.4,0.4c0.4,0,0.8-0.2,1.1-0.3l0,0l0,0c0.1,0,0.1-0.1,0.1-0.1c0.1,0,0.1-0.1,0.2-0.1C56.9,49.1,57,49,57,49
					l1.2,2.9L59.1,53.8L59.1,53.8z M53.2,54.7l1.1,2.6l0,0.1c0,0.1,0.1,0.2,0.1,0.2c0,0.3-0.2,0.7-0.7,1c-1.5,0.9-3,1.7-4.7,2.3
					c-4.2,1.5-9.1,2.4-14.1,2.6c-0.9,0-1.9,0-2.8,0h-0.3c-0.9,0-1.9,0-2.8,0c-5-0.2-9.9-1.1-14.1-2.6c-1.7-0.6-3.2-1.4-4.7-2.3
					c-0.5-0.3-0.7-0.7-0.7-1c0-0.1,0-0.2,0.1-0.2l0-0.1l1.1-2.6l0.3-0.6h0l1.2-2.8c0.1,0.4,0.4,0.7,0.8,0.9l0,0c1.8,1,4.9,1.9,5.2,2
					l0,0l0.1,0l0,0c3.6,1.1,7.4,1.7,11.1,1.9c0.7,0,1.4,0.1,2.2,0.1h0.6c0.7,0,1.4,0,2.2-0.1c3.7-0.1,7.6-0.8,11.1-1.9l0,0l0.1,0
					l0,0c0.4-0.1,3.5-1,5.2-2l0,0c0.4-0.2,0.7-0.5,0.9-0.9l1.2,2.8h0L53.2,54.7L53.2,54.7z M10.5,53.8c-1,0-2,0.5-2.7,0.8
					c-0.2,0.1-0.4,0.2-0.6,0.3l0,0C6.6,55,6.2,55,5.9,55c-1,0-1-0.6-1-1c0-0.1,0-0.1,0-0.2c0,0,0,0,0-0.1l0,0l0.8-1.9L6.9,49
					C6.9,49,7,49.1,7.1,49.2c0.1,0.1,0.1,0.1,0.2,0.1c0.1,0,0.1,0.1,0.1,0.1l0,0l0,0c0.3,0.2,0.7,0.3,1.1,0.3c0.4,0,0.9-0.1,1.4-0.4
					c1.5-0.9,2.8-1.3,4-1.2c1.9,0.1,3.5,1.1,5,2.4c0.3,0.2,0.3,0.5,0.3,0.7c0,0.2-0.1,0.4-0.1,0.5l0,0c-0.1,0.1-0.2,0.2-0.4,0.3
					c0,0-0.1,0-0.1,0c-0.2,0-0.3-0.1-0.4-0.2c-0.9-0.7-2.6-2-4.2-2.1c-0.2,0-0.5,0-0.7,0.1c-0.1,0-0.2,0.1-0.3,0.1
					c-0.2,0.1-0.3,0.1-0.4,0.2c-0.2,0.1-0.3,0.3-0.3,0.4l0,0l0,0l-0.1,0.2l-1.3,3C10.7,53.8,10.6,53.8,10.5,53.8L10.5,53.8z
					 M1.1,47.5C1.1,47.5,1.1,47.5,1.1,47.5c0.8-0.9,2-1.1,3.2-1.1c0.9,0,1.8,0.3,2.5,0.5c0.3,0.1,0.6,0.3,0.8,0.4
					c0.2,0.1,0.3,0.3,0.3,0.3c0,0,0,0,0,0c0,0,0,0-0.1,0.1c0,0-0.1,0.1-0.2,0.1c0,0-0.1,0-0.1,0c-0.4,0.1-0.6,0.3-0.7,0.5
					c0,0,0,0,0,0v0v0l0,0l-1.1,2.6l-0.1,0.1C5.2,49.5,3.4,47.6,1.1,47.5L1.1,47.5z M7.3,49.1C7.3,49.1,7.3,49.1,7.3,49.1
					C7.1,48.9,7,48.8,7,48.6c0,0,0,0,0-0.1c0,0,0,0,0,0l0,0l0,0c0.1-0.2,0.2-0.3,0.6-0.4c0,0,0,0,0.1,0L7.3,49.1L7.3,49.1z
					 M18.2,53.9c-1.8-0.6-3.5-1.2-5.1-2l0,0c-0.5-0.3-0.8-0.7-0.8-1c0,0,0-0.1,0-0.1c0,0,0-0.1,0-0.1l0,0c0,0,0-0.1,0.1-0.1
					c0.1-0.1,0.1-0.2,0.3-0.3c0.1-0.1,0.2-0.1,0.3-0.2c0.3-0.1,0.6-0.1,0.9-0.1c0.5,0,0.9,0.1,1.4,0.3c0.8,0.4,1.7,0.9,2.3,1.3
					c0.2,0.1,0.3,0.2,0.5,0.3c0,0,0.1,0.1,0.1,0.1c0.1,0.1,0.3,0.1,0.4,0.1c0.1,0,0.1,0,0.2,0c0,0,0,0,0,0c0.1,0,0.1,0,0.2,0h0
					L18.2,53.9L18.2,53.9z M45,52.2L45,52.2c0.1,0,0.1,0,0.2,0c0,0,0,0,0,0c0.1,0,0.1,0,0.2,0c0.1,0,0.3,0,0.4-0.1
					c0.1,0,0.1-0.1,0.1-0.1c0.1-0.1,0.3-0.2,0.5-0.3c0.6-0.5,1.4-1,2.3-1.3c0.5-0.2,0.9-0.3,1.4-0.3c0.3,0,0.6,0,0.9,0.1
					c0.1,0.1,0.2,0.1,0.3,0.2c0.1,0.1,0.2,0.2,0.3,0.3c0,0,0,0.1,0.1,0.1l0,0c0,0,0,0.1,0,0.1c0,0,0,0.1,0,0.1c0,0.3-0.3,0.7-0.8,1
					l0,0c-1.6,0.8-3.3,1.4-5.1,2L45,52.2L45,52.2z M56.2,48.1C56.2,48.1,56.3,48.1,56.2,48.1c0.4,0.1,0.6,0.3,0.6,0.5l0,0l0,0
					c0,0,0,0,0,0c0,0,0,0,0,0.1c0,0.1-0.1,0.3-0.2,0.4c0,0-0.1,0.1-0.1,0.1L56.2,48.1L56.2,48.1z M59.6,46.2c-1.4,0.1-2.8,0.5-3.4,1
					c-0.2,0.2-0.3,0.3-0.3,0.5c0,0,0,0.1,0,0.1l0,0l0.5,1.4c-0.3,0.2-0.6,0.3-1.1,0.3c-0.4,0-0.8-0.1-1.3-0.3
					c-1.5-0.9-2.8-1.3-4.1-1.3c-2,0.1-3.7,1.1-5.1,2.4c-0.3,0.3-0.4,0.6-0.4,0.9c0,0.2,0.1,0.4,0.1,0.5l0,0l0.8,2.1
					c-3.6,1.1-7.4,1.7-11.1,1.8c-0.7,0-1.4,0.1-2.1,0.1h-0.6c-0.7,0-1.4-0.1-2.2-0.1c-3.7-0.1-7.5-0.8-11.1-1.8l0.8-2.1l0,0
					c0.1-0.1,0.1-0.3,0.1-0.5c0-0.3-0.1-0.6-0.4-0.9c-1.4-1.3-3.1-2.4-5.1-2.4c-1.3,0-2.6,0.3-4.1,1.3c-0.5,0.3-0.9,0.3-1.3,0.3
					c-0.4,0-0.8-0.2-1-0.3l0.5-1.4l0,0c0,0,0-0.1,0-0.1c0-0.2-0.1-0.4-0.3-0.5c-0.6-0.5-2-1-3.4-1c-1.3,0-2.7,0.3-3.6,1.4l-0.2,0.2
					l0.3,0c0.1,0,0.2,0,0.3,0c2.3,0.1,4,2.2,4.5,3.8l-0.9,2.2c0,0,0,0.1,0,0.1c0,0.1,0,0.1,0,0.2c0,0.2,0,0.5,0.2,0.8
					c0.2,0.3,0.5,0.4,1,0.5h0c0.3,0,0.8-0.1,1.3-0.2l0,0c0.2-0.1,0.5-0.2,0.7-0.3c0.7-0.3,1.8-0.8,2.6-0.8c0.1,0,0.2,0,0.3,0
					l-0.3,0.6l-1.1,2.6l0,0.1c-0.1,0.1-0.1,0.2-0.1,0.3c0,0.4,0.3,0.9,0.8,1.2c1.5,0.9,3,1.7,4.7,2.4c4.3,1.5,9.1,2.4,14.2,2.6
					c1,0,2,0.1,2.9,0.1h0.1c1,0,2,0,2.9-0.1c5-0.2,9.9-1.1,14.2-2.6c1.7-0.6,3.3-1.4,4.7-2.4c0.5-0.3,0.8-0.8,0.8-1.2
					c0-0.1,0-0.2-0.1-0.3l0-0.1l-1.1-2.6L53.2,54c0.1,0,0.2,0,0.3,0c0.9,0,1.9,0.5,2.6,0.8c0.2,0.1,0.5,0.2,0.7,0.3l0,0
					c0.5,0.2,1,0.2,1.3,0.2h0c0.5,0,0.9-0.2,1-0.5c0.2-0.3,0.2-0.5,0.2-0.8c0-0.1,0-0.2,0-0.2c0-0.1,0-0.1,0-0.1l-0.9-2.2
					c0.4-1.6,2.2-3.7,4.5-3.8c0.1,0,0.2,0,0.3,0l0.3,0l-0.2-0.2C62.3,46.5,60.9,46.2,59.6,46.2L59.6,46.2z"/>
			</g>
			<g>
				<path class="st3" d="M31.3,64c-0.7,0-1.4,0-2.1-0.1l-0.3,0c-5-0.2-10-1.1-14.2-2.6c-1.6-0.6-3.2-1.4-4.8-2.4
					C9.4,58.6,9,58.1,9,57.5c0-0.1,0-0.3,0.1-0.4l0,0l1.2-2.8c-0.7,0-1.5,0.4-2.1,0.6C8.1,54.9,8,55,7.9,55
					c-0.2,0.1-0.5,0.2-0.7,0.3l0,0c-0.5,0.1-1,0.2-1.4,0.2h0c-0.7,0-1.1-0.3-1.2-0.6c-0.2-0.3-0.3-0.6-0.3-0.9c0-0.1,0-0.2,0-0.3
					l0,0c0,0,0-0.1,0-0.1l0.9-2.1C4.9,50,3.2,48,1.1,48c-0.1,0-0.2,0-0.3,0L0,48l0.5-0.7c1.1-1.3,2.6-1.5,3.8-1.4
					c1.6,0.1,3,0.6,3.6,1.1c0.2,0.2,0.4,0.4,0.4,0.7l0,0l-0.1,0.2l-0.5,1.2c0.2,0.1,0.4,0.2,0.7,0.2c0.4,0,0.7-0.1,1.1-0.3
					c1.4-0.9,2.8-1.3,4.2-1.3c1.8,0.1,3.4,0.9,5.3,2.5c0.3,0.3,0.5,0.7,0.5,1.1c0,0.2,0,0.3-0.1,0.5l0,0l-0.1,0.1l-0.7,1.9
					c3.5,1,7.2,1.6,10.7,1.7c0.2,0,0.5,0,0.7,0c0.5,0,1,0.1,1.4,0h0.6c0.5,0,0.9,0,1.4,0c0.2,0,0.5,0,0.7,0
					c3.6-0.1,7.3-0.7,10.7-1.7l-0.8-1.9c-0.1-0.2-0.1-0.4-0.1-0.6c0-0.4,0.2-0.8,0.5-1.1c1.8-1.6,3.5-2.4,5.3-2.5
					c1.4-0.1,2.8,0.4,4.2,1.3c0.4,0.2,0.7,0.3,1.1,0.3c0.3,0,0.6-0.1,0.7-0.2l-0.5-1.4l0.1,0c0-0.3,0.2-0.5,0.4-0.7
					c0.6-0.5,2-1,3.6-1.1l0,0c1.1,0,2.7,0.2,3.8,1.4L64,48L63.1,48c-0.1,0-0.2,0-0.3,0c-2.1,0.1-3.8,2.1-4.2,3.5l0.9,2.1
					c0,0,0,0.1,0,0.1l0,0.1c0,0.1,0,0.2,0,0.3c0,0.4-0.1,0.7-0.3,0.9c-0.2,0.3-0.5,0.5-1.2,0.6c-0.4,0-0.8-0.1-1.4-0.2l0,0
					c-0.2-0.1-0.5-0.2-0.7-0.3c-0.1,0-0.2-0.1-0.3-0.1c-0.7-0.3-1.4-0.6-2.1-0.6l1.2,2.9c0.1,0.1,0.1,0.3,0.1,0.4
					c0,0.6-0.3,1.1-0.9,1.4c-1.5,1-3.2,1.8-4.8,2.4C45,62.8,40,63.7,35,63.9l-0.3,0c-0.9,0-1.8,0.1-2.7,0H32
					C31.7,64,31.5,64,31.3,64z M11.1,54.4l-1.3,3c0,0.1,0,0.1,0,0.1c0,0.2,0.1,0.5,0.6,0.8c1.5,1,3.1,1.7,4.7,2.3
					c4.2,1.5,9.1,2.4,14,2.6c1,0,1.9,0,2.8,0h0.3c0.9,0,1.9,0,2.8,0c5-0.2,9.8-1.1,14-2.6c1.6-0.6,3.1-1.4,4.6-2.3
					c0.4-0.3,0.6-0.6,0.6-0.8c0-0.1,0-0.1,0-0.1l0-0.1l-1.3-3l0,0l-0.1-0.2l-1-2.3c-0.2,0.2-0.4,0.4-0.7,0.5c-1.1,0.6-2.9,1.3-5.2,2
					l-0.4,0.1l0,0c-3.5,1.1-7.3,1.7-11,1.8c-0.2,0-0.3,0-0.5,0c-0.5,0-1.1,0-1.7,0h-0.6c-0.6,0-1.1,0-1.7,0c-0.2,0-0.3,0-0.5,0
					c-3.7-0.1-7.5-0.7-11-1.8l0,0l-0.4-0.1c-2.3-0.7-4.1-1.4-5.2-2l0,0c-0.3-0.1-0.5-0.3-0.7-0.5L11.1,54.4L11.1,54.4z M5.1,54
					c0,0.4,0.1,0.7,0.8,0.7c0.3,0,0.7-0.1,1.1-0.2l0,0l0.1,0c0.1,0,0.4-0.1,0.6-0.2h0c0.1-0.1,0.2-0.1,0.4-0.2
					c0.7-0.3,1.6-0.7,2.5-0.7l0,0c0.1,0,0.1,0,0.2,0l1.3-3c0.1-0.2,0.2-0.4,0.4-0.5c0.1-0.1,0.3-0.2,0.5-0.3c0.1,0,0.2-0.1,0.3-0.1
					c0.2-0.1,0.5-0.1,0.8-0.1c1.6,0.1,3.4,1.4,4.3,2.1l0.1,0c0.1,0.1,0.2,0.1,0.3,0.1c0,0,0.1,0,0.1,0c0.1,0,0.2-0.1,0.2-0.1l0,0
					c0-0.1,0.1-0.2,0.1-0.4c0-0.2-0.1-0.4-0.2-0.5c-1.7-1.5-3.2-2.3-4.8-2.3c-1.3,0-2.5,0.4-3.8,1.2l0,0c-0.5,0.3-1,0.4-1.5,0.4
					c-0.3,0-0.7-0.1-1-0.2l0,0.1l-0.3-0.2c-0.1,0-0.1-0.1-0.2-0.1c0,0-0.1-0.1-0.1-0.1l-1.9,4.4v0v0C5.1,53.9,5.1,54,5.1,54z
					 M57,54.6c0.4,0.1,0.8,0.2,1.1,0.2c0.7,0,0.8-0.4,0.8-0.7c0-0.1,0-0.1,0-0.1l0,0l-1.9-4.4c0,0-0.1,0.1-0.1,0.1
					c-0.1,0-0.1,0.1-0.2,0.1l-0.3,0.2l0,0c-0.3,0.1-0.6,0.2-1,0.2c-0.5,0-1-0.1-1.5-0.4l0,0c-1.3-0.8-2.6-1.2-3.8-1.2
					c-1.6,0.1-3.1,0.8-4.8,2.3c-0.2,0.2-0.3,0.3-0.2,0.5c0,0.2,0.1,0.3,0.1,0.4l0,0c0,0,0.1,0.1,0.2,0.1c0,0,0.1,0,0.1,0
					c0.1,0,0.2,0,0.3-0.1l0.1,0c0.9-0.7,2.7-2,4.3-2.1c0.3,0,0.5,0,0.8,0.1c0.1,0,0.2,0.1,0.3,0.1c0.2,0.1,0.3,0.2,0.5,0.3
					c0.2,0.2,0.3,0.3,0.4,0.5l0.1,0.2l1.2,2.8c0.1,0,0.1,0,0.2,0c0.9,0,1.8,0.4,2.5,0.7c0.1,0.1,0.3,0.1,0.4,0.2h0
					C56.6,54.5,56.8,54.5,57,54.6L57,54.6z M12.6,50.8C12.6,50.9,12.6,50.9,12.6,50.8c0,0.1,0,0.1,0,0.1c0,0.2,0.2,0.5,0.6,0.8
					c1.5,0.7,3.1,1.3,4.8,1.9l0.4-1c-0.2,0-0.3-0.1-0.5-0.1c-0.1,0-0.1-0.1-0.2-0.1c-0.1-0.1-0.3-0.2-0.5-0.3
					c-0.8-0.6-1.6-1.1-2.2-1.3c-0.5-0.2-0.9-0.3-1.3-0.3c-0.3,0-0.5,0-0.8,0.1c-0.1,0-0.2,0.1-0.3,0.1
					C12.8,50.6,12.7,50.7,12.6,50.8C12.7,50.8,12.6,50.8,12.6,50.8L12.6,50.8z M45.5,52.5l0.4,1c1.7-0.5,3.3-1.2,4.8-1.9
					c0.5-0.3,0.6-0.6,0.6-0.8c0,0,0,0,0-0.1c0,0,0,0,0-0.1l0,0c0,0,0,0,0-0.1c0-0.1-0.1-0.1-0.2-0.2c-0.1-0.1-0.2-0.1-0.3-0.1
					c-0.2-0.1-0.5-0.1-0.8-0.1c-0.4,0-0.8,0.1-1.3,0.3c-0.6,0.3-1.4,0.7-2.2,1.3c-0.1,0.1-0.2,0.2-0.3,0.3l-0.1,0.1
					c-0.1,0-0.1,0.1-0.2,0.1C45.8,52.5,45.6,52.5,45.5,52.5z M57.2,48.2l0.1,0.2l0.9,2.1c0.7-1.5,2.2-2.9,4-3.2
					c-0.8-0.6-1.8-0.7-2.6-0.6c-0.8,0-1.7,0.2-2.4,0.5c-0.3,0.1-0.6,0.3-0.7,0.4c0,0-0.1,0.1-0.1,0.1c0,0,0,0,0.1,0l0,0
					C56.9,47.8,57.1,48,57.2,48.2L57.2,48.2z M1.7,47.3c1.8,0.3,3.3,1.7,4,3.2l1-2.4h0C6.8,48,7,47.8,7.4,47.7l0,0c0,0,0,0,0.1,0
					c0,0-0.1,0-0.1-0.1c-0.2-0.1-0.4-0.3-0.7-0.4c-0.7-0.3-1.6-0.5-2.4-0.5C3.5,46.7,2.5,46.8,1.7,47.3z"/>
			</g>
		</g>
		<g>
			<path class="st4" d="M16.9,57.5c-0.2,0.7-0.7,1-1.4,0.8c-0.7-0.2-0.9-0.7-0.6-1.4l0.5-1.4l0.6,0.2L15.4,57
				c-0.1,0.4,0,0.7,0.3,0.8c0.3,0.1,0.5,0,0.7-0.4l0.5-1.5l0.6,0.2L16.9,57.5z"/>
			<path class="st4" d="M18.9,59.1l-1.5-0.4l0.7-2.5l0.6,0.2l-0.5,2.1l0.9,0.2L18.9,59.1z"/>
			<path class="st4" d="M20,59.4l-0.6-0.1l0.6-2.5l0.6,0.1L20,59.4z"/>
			<path class="st4" d="M22.9,59.8c-0.3,0.1-0.6,0.1-1,0.1c-0.4-0.1-0.7-0.2-0.9-0.5c-0.2-0.3-0.3-0.6-0.2-1s0.3-0.7,0.6-0.9
				s0.7-0.3,1.1-0.2c0.3,0.1,0.5,0.1,0.7,0.2L23.1,58c-0.2-0.2-0.4-0.3-0.7-0.3c-0.2,0-0.5,0-0.6,0.1c-0.2,0.1-0.3,0.3-0.3,0.6
				c-0.1,0.3,0,0.5,0.1,0.6c0.1,0.2,0.3,0.3,0.5,0.3c0.1,0,0.3,0,0.3,0l0.1-0.5L22,58.7l0.1-0.5l1.1,0.2L22.9,59.8z"/>
			<path class="st4" d="M25.9,60.3l-0.6-0.1l-0.1-0.6l-0.9-0.1L24,60.1L23.4,60l1.3-2.5l0.7,0.1L25.9,60.3z M25.1,59.2L25,58.3
				c0-0.1,0-0.2,0-0.2h0c0,0.1,0,0.2-0.1,0.2l-0.4,0.8L25.1,59.2z"/>
			<path class="st4" d="M29.5,60.6l-0.6,0L29,59c0-0.2,0-0.4,0.1-0.6h0c0,0.2-0.1,0.3-0.1,0.3l-0.7,1.7l-0.5,0l-0.5-1.8
				c0-0.1,0-0.2-0.1-0.4h0c0,0.3,0,0.5,0,0.7l-0.1,1.4l-0.5,0l0.2-2.6l0.9,0.1l0.4,1.6c0,0.1,0.1,0.3,0.1,0.4h0
				c0-0.1,0.1-0.3,0.1-0.4l0.6-1.5l0.8,0.1L29.5,60.6z"/>
			<path class="st4" d="M32.4,59.5c0,0.8-0.4,1.2-1.1,1.2c-0.7,0-1.1-0.4-1-1.2l0-1.5l0.6,0l0,1.5c0,0.4,0.2,0.6,0.5,0.6
				c0.3,0,0.5-0.2,0.5-0.6l0-1.5l0.6,0L32.4,59.5z"/>
			<path class="st4" d="M34.3,60.5l0-0.6c0.1,0.1,0.2,0.1,0.4,0.2c0.1,0,0.3,0.1,0.4,0.1c0.1,0,0.1,0,0.2,0c0.1,0,0.1,0,0.1-0.1
				s0.1-0.1,0.1-0.1c0,0,0-0.1,0-0.1c0-0.1,0-0.1-0.1-0.1c0,0-0.1-0.1-0.1-0.1c-0.1,0-0.1-0.1-0.2-0.1c-0.1,0-0.2-0.1-0.2-0.1
				c-0.2-0.1-0.4-0.2-0.5-0.3c-0.1-0.1-0.2-0.3-0.2-0.4c0-0.1,0-0.3,0.1-0.4c0.1-0.1,0.1-0.2,0.2-0.3c0.1-0.1,0.2-0.1,0.3-0.2
				c0.1,0,0.3-0.1,0.4-0.1c0.1,0,0.3,0,0.4,0c0.1,0,0.2,0,0.3,0.1l0,0.5c-0.1,0-0.1-0.1-0.2-0.1c-0.1,0-0.1,0-0.2-0.1
				c-0.1,0-0.1,0-0.2,0c-0.1,0-0.1,0-0.2,0c-0.1,0-0.1,0-0.2,0c-0.1,0-0.1,0-0.1,0.1c0,0-0.1,0.1-0.1,0.1c0,0,0,0.1,0,0.1
				c0,0,0,0.1,0,0.1c0,0,0.1,0.1,0.1,0.1c0,0,0.1,0.1,0.2,0.1s0.1,0.1,0.2,0.1c0.1,0,0.2,0.1,0.3,0.1c0.1,0.1,0.2,0.1,0.2,0.2
				c0.1,0.1,0.1,0.1,0.2,0.2s0.1,0.2,0.1,0.3c0,0.2,0,0.3-0.1,0.4c-0.1,0.1-0.1,0.2-0.2,0.3s-0.2,0.1-0.3,0.2
				c-0.1,0-0.3,0.1-0.4,0.1c-0.1,0-0.3,0-0.4,0C34.5,60.6,34.4,60.6,34.3,60.5z"/>
			<path class="st4" d="M38.6,60.2c-0.2,0.1-0.4,0.2-0.7,0.2c-0.4,0-0.7-0.1-1-0.3c-0.3-0.2-0.4-0.5-0.4-0.9c0-0.4,0.1-0.8,0.3-1
				c0.2-0.3,0.6-0.4,1-0.5c0.3,0,0.5,0,0.7,0l0.1,0.6c-0.2-0.1-0.4-0.1-0.6-0.1c-0.2,0-0.4,0.1-0.6,0.3s-0.2,0.4-0.2,0.6
				c0,0.3,0.1,0.4,0.3,0.6c0.2,0.1,0.4,0.2,0.6,0.2c0.2,0,0.4-0.1,0.6-0.2L38.6,60.2z"/>
			<path class="st4" d="M41.5,59.9L40.9,60l-0.2-1l-1.1,0.2l0.2,1l-0.6,0.1l-0.4-2.6l0.6-0.1l0.1,1l1.1-0.2l-0.1-1l0.6-0.1
				L41.5,59.9z"/>
			<path class="st4" d="M43.5,59.6c-0.4,0.1-0.7,0-1-0.2C42.2,59.3,42,59,42,58.6c-0.1-0.4,0-0.8,0.2-1c0.2-0.3,0.5-0.5,0.9-0.6
				c0.4-0.1,0.7,0,1,0.2c0.3,0.2,0.5,0.5,0.5,0.9c0.1,0.4,0,0.7-0.2,1C44.1,59.4,43.8,59.6,43.5,59.6z M43.1,57.5
				c-0.2,0-0.4,0.2-0.4,0.3c-0.1,0.2-0.1,0.4-0.1,0.6c0.1,0.3,0.2,0.4,0.3,0.6c0.2,0.1,0.3,0.2,0.5,0.1c0.2,0,0.3-0.1,0.4-0.3
				c0.1-0.2,0.1-0.4,0.1-0.6c-0.1-0.3-0.2-0.5-0.3-0.6C43.4,57.5,43.2,57.5,43.1,57.5z"/>
			<path class="st4" d="M46.5,58.9c-0.4,0.1-0.7,0.1-1-0.1c-0.3-0.2-0.5-0.4-0.6-0.8c-0.1-0.4-0.1-0.8,0.1-1.1
				c0.2-0.3,0.4-0.5,0.8-0.6c0.4-0.1,0.7-0.1,1,0.1c0.3,0.2,0.5,0.5,0.6,0.8c0.1,0.4,0.1,0.7-0.1,1C47.1,58.6,46.8,58.8,46.5,58.9z
				 M45.9,56.8c-0.2,0.1-0.3,0.2-0.4,0.4s-0.1,0.4,0,0.6c0.1,0.3,0.2,0.4,0.3,0.5c0.2,0.1,0.3,0.1,0.5,0.1c0.2-0.1,0.3-0.2,0.4-0.3
				s0.1-0.4,0-0.6c-0.1-0.3-0.2-0.5-0.3-0.6C46.3,56.8,46.1,56.8,45.9,56.8z"/>
			<path class="st4" d="M49.8,57.8l-1.5,0.5l-0.9-2.4l0.6-0.2l0.7,2l0.9-0.3L49.8,57.8z"/>
		</g>
	</g>
</g>
</svg>
